# This file uses centimeters as units for non-parametric coordinates.

mtllib Backplate_Object.mtl
g default
v -5.894161 -5.784672 0.000000
v 5.748175 -5.784672 0.000000
v -5.894161 5.857664 0.000000
v 5.748175 5.857664 0.000000
v -0.072993 0.036496 0.000000
vt 0.000000 0.000000
vt 1.000000 0.000000
vt 0.000000 1.000000
vt 1.000000 1.000000
vt 0.500000 0.500000
vn 0.000000 0.000000 1.000000
vn 0.000000 0.000000 1.000000
vn 0.000000 0.000000 1.000000
vn 0.000000 0.000000 1.000000
vn 0.000000 0.000000 1.000000
vn 0.000000 0.000000 1.000000
vn 0.000000 0.000000 1.000000
vn 0.000000 0.000000 1.000000
vn 0.000000 0.000000 1.000000
vn 0.000000 0.000000 1.000000
vn 0.000000 0.000000 1.000000
vn 0.000000 0.000000 1.000000
s off
g pPlane1
usemtl initialShadingGroup
f 5/5/1 4/4/2 3/3/3
f 5/5/4 2/2/5 4/4/6
f 1/1/7 5/5/8 3/3/9
f 1/1/10 2/2/11 5/5/12
