# This file uses centimeters as units for non-parametric coordinates.

mtllib Fore_Ground.mtl
g default
v -12.802437 -3.758433 4.279586
v -8.171537 -3.796174 5.875188
v -5.976345 -3.899905 6.673966
v -3.724652 -4.728314 7.645914
v 0.638052 -4.519158 9.354552
v 6.050451 -4.388470 9.176645
v 13.339374 -4.322417 6.867622
v -11.418478 -3.169742 3.167629
v -7.166429 -2.795036 4.912722
v -5.448406 -2.971255 5.798975
v -3.179969 -3.916788 6.716485
v 0.924068 -3.931266 8.020993
v 5.609368 -3.911498 7.181886
v 12.614102 -3.245264 4.461704
v -10.450537 -2.826062 2.408005
v -6.342428 -2.835583 3.607030
v -4.696090 -3.220426 4.224987
v -2.631524 -4.279355 5.283916
v 1.577654 -3.998760 6.474946
v 5.418534 -3.798275 4.991696
v 11.462910 -2.884076 1.062600
v -14.344267 -4.827443 6.709105
v -10.043003 -5.067880 8.091144
v -7.410500 -5.237298 8.816051
v -4.507589 -5.558881 9.853134
v 0.924728 -5.575009 11.638481
v 6.507170 -5.993515 11.631144
v 13.128649 -5.761571 9.695865
v -10.195576 -3.777134 5.256394
v -11.978904 -3.392394 3.556692
v -6.893012 -3.815891 6.311847
v -7.594164 -3.330445 5.328937
v -5.037883 -4.111838 7.069146
v -5.663672 -3.366701 6.195892
v -1.683678 -4.309491 8.552798
v -3.435561 -4.354214 7.125867
v 2.793550 -4.543363 9.615928
v 0.713899 -4.128033 8.635067
v 9.185933 -4.534101 7.988288
v 5.820993 -4.200103 8.149691
v 13.057015 -3.737038 5.661758
v -9.071784 -3.089927 4.112659
v -11.201229 -2.965337 2.602288
v -6.143752 -2.969998 5.422853
v -6.751282 -2.884174 4.307202
v -4.525048 -3.366379 6.197018
v -5.104426 -3.054060 5.089996
v -1.219460 -3.362365 7.456883
v -2.909473 -4.022232 6.061581
v 2.818203 -3.902161 8.011593
v 1.227536 -3.790371 7.279759
v 8.619667 -3.672306 5.936089
v 5.419894 -3.732689 6.263925
v 12.004382 -2.782076 2.898278
v -8.445004 -2.786551 2.916806
v -5.300612 -2.961938 3.957008
v -3.905400 -3.665857 4.669209
v -0.577447 -4.061362 6.063354
v 3.154604 -4.097746 5.986116
v 7.690180 -3.501552 3.886516
v -13.900099 -4.319492 5.622348
v -9.035598 -4.398002 6.870821
v -12.522284 -5.021907 7.516455
v -6.612542 -4.541503 7.626415
v -8.515285 -5.130358 8.479916
v -4.095645 -5.318121 8.632811
v -6.200017 -5.416658 9.232824
v 0.737553 -4.910316 10.412021
v -1.956964 -5.554409 10.799873
v 6.348552 -5.277884 10.273174
v 3.610358 -5.792450 11.934393
v 13.596581 -5.051365 8.158196
v 10.022402 -5.964986 10.672265
v -9.512257 -3.366288 4.608512
v -6.462729 -3.299630 5.817190
v -4.742716 -3.624516 6.587662
v -1.477906 -3.546228 7.943873
v 2.723505 -4.040892 8.792833
v 8.927365 -4.022347 6.938037
v -8.732977 -2.913304 3.535148
v -5.742700 -2.900848 4.757648
v -4.233655 -3.434543 5.507765
v -0.910965 -3.464399 6.802073
v 2.971703 -3.936913 7.045155
v 8.161336 -3.590660 4.991336
v -11.262922 -4.357213 6.289995
v -7.627978 -4.444930 7.278006
v -5.561770 -4.731231 8.030914
v -1.834146 -4.889714 9.573414
v 3.134283 -5.127756 10.707932
v 9.629194 -5.228219 9.367411
vt 0.191623 0.874597
vt 0.234367 0.792828
vt 0.268995 0.791626
vt 0.232649 0.873217
vt 0.295007 0.791088
vt 0.261523 0.874721
vt 0.219030 0.976491
vt 0.189799 0.981979
vt 0.142153 0.985416
vt 0.259945 0.739776
vt 0.276762 0.700238
vt 0.301173 0.705165
vt 0.288470 0.741560
vt 0.320082 0.710632
vt 0.310474 0.743728
vt 0.293220 0.659011
vt 0.315512 0.600593
vt 0.340503 0.607537
vt 0.317200 0.664586
vt 0.361034 0.612133
vt 0.335989 0.669786
vt 0.349832 0.509480
vt 0.396008 0.412871
vt 0.420663 0.432538
vt 0.375032 0.521731
vt 0.446158 0.444810
vt 0.398059 0.528614
vt 0.453871 0.337961
vt 0.567194 0.250308
vt 0.592049 0.288864
vt 0.477277 0.365329
vt 0.615613 0.325056
vt 0.504426 0.386301
vt 0.700054 0.189352
vt 0.861970 0.094726
vt 0.890759 0.140400
vt 0.724741 0.229525
vt 0.914453 0.190880
vt 0.746424 0.269744
vt 0.326510 0.796735
vt 0.289820 0.881881
vt 0.360759 0.805475
vt 0.317828 0.891868
vt 0.272236 0.969695
vt 0.243228 0.987051
vt 0.352619 0.721655
vt 0.343399 0.751640
vt 0.391968 0.735456
vt 0.381783 0.762423
vt 0.389643 0.623782
vt 0.366303 0.681838
vt 0.422290 0.638957
vt 0.402380 0.697315
vt 0.478455 0.458078
vt 0.427828 0.539081
vt 0.514154 0.471844
vt 0.460967 0.551339
vt 0.638309 0.359035
vt 0.539124 0.411117
vt 0.677758 0.398017
vt 0.577596 0.437855
vt 0.944321 0.257660
vt 0.761722 0.312888
vt 0.984730 0.330655
vt 0.781596 0.361330
vt 0.066874 0.978389
vt 0.126869 0.876092
vt 0.019545 0.958913
vt 0.050251 0.877645
vt 0.108298 0.783095
vt 0.177014 0.789175
vt 0.207459 0.733018
vt 0.142991 0.723773
vt 0.166372 0.679190
vt 0.227724 0.690833
vt 0.247330 0.645835
vt 0.190486 0.628859
vt 0.223033 0.557337
vt 0.273522 0.581902
vt 0.313545 0.482912
vt 0.271715 0.449185
vt 0.333887 0.334065
vt 0.366229 0.377415
vt 0.430403 0.293960
vt 0.406903 0.241642
vt 0.504983 0.161003
vt 0.542281 0.207492
vt 0.670811 0.133381
vt 0.642342 0.081236
vt 0.767728 0.014700
vt 0.829781 0.047240
vn -0.129193 0.906475 0.402011
vn -0.151740 0.866649 0.475283
vn -0.218711 0.819971 0.528974
vn -0.184567 0.890651 0.415542
vn -0.133328 0.944371 0.300645
vn -0.163963 0.945712 0.280614
vn -0.144229 0.943247 0.299137
vn -0.153664 0.923776 0.350749
vn -0.123534 0.925509 0.358012
vn -0.163145 0.826793 0.538327
vn -0.117544 0.796304 0.593366
vn -0.143080 0.758882 0.635315
vn -0.225452 0.776151 0.588864
vn 0.058010 0.934733 0.350583
vn -0.080605 0.941030 0.328581
vn 0.012265 0.784094 0.620521
vn -0.152746 0.810567 0.565375
vn -0.185722 0.790886 0.583101
vn 0.013619 0.738420 0.674204
vn -0.042023 0.971682 0.232526
vn 0.221695 0.897217 0.381908
vn -0.246911 0.824215 0.509612
vn -0.061291 0.865175 0.497710
vn -0.011620 0.895678 0.444552
vn -0.213768 0.844230 0.491506
vn 0.079175 0.977272 0.196647
vn -0.078466 0.984588 0.156297
vn 0.016502 0.892045 0.451645
vn 0.104148 0.901088 0.420944
vn 0.076625 0.953733 0.290727
vn 0.010924 0.944799 0.327467
vn 0.030433 0.981982 0.186510
vn 0.017922 0.988226 0.151950
vn 0.109736 0.902200 0.417126
vn 0.077527 0.896124 0.436979
vn 0.051700 0.921420 0.385114
vn 0.066436 0.937912 0.340453
vn -0.006393 0.957097 0.289698
vn 0.009152 0.967097 0.254245
vn 0.003027 0.998866 0.047517
vn -0.085173 0.985080 0.149543
vn 0.012008 0.997510 0.069495
vn -0.061393 0.985082 0.160762
vn -0.086917 0.974290 0.207858
vn -0.106884 0.966609 0.232903
vn 0.307419 0.951090 0.030345
vn 0.134305 0.990438 0.031541
vn 0.378371 0.925637 0.005721
vn 0.182994 0.982786 0.025397
vn 0.175984 0.962725 -0.205401
vn 0.414347 0.910119 -0.001084
vn 0.245013 0.920212 -0.305251
vn 0.452501 0.890029 -0.055609
vn 0.099448 0.989297 -0.106776
vn 0.039459 0.963406 -0.265126
vn 0.086834 0.950130 -0.299522
vn 0.077709 0.890348 -0.448601
vn -0.060038 0.997624 0.033806
vn -0.022646 0.999084 -0.036301
vn -0.110738 0.992999 -0.041110
vn -0.056852 0.987533 -0.146789
vn -0.101230 0.984853 0.140776
vn -0.070623 0.991225 0.111741
vn -0.153479 0.986960 0.048526
vn -0.114562 0.992737 0.036725
vn -0.093000 0.921394 0.377337
vn -0.094485 0.912401 0.398242
vn -0.084835 0.912530 0.400116
vn -0.085028 0.909183 0.407622
vn -0.084928 0.901093 0.425229
vn -0.099396 0.896321 0.432123
vn -0.093337 0.881318 0.463213
vn -0.074883 0.889954 0.449861
vn -0.049260 0.878828 0.474589
vn -0.060965 0.866860 0.494810
vn 0.026564 0.869994 0.492347
vn 0.016077 0.900713 0.434118
vn -0.068861 0.936335 0.344288
vn -0.092469 0.901726 0.422304
vn -0.196460 0.893932 0.402850
vn -0.171440 0.904889 0.389594
vn -0.059683 0.878008 0.474910
vn -0.055008 0.893248 0.446186
vn 0.049096 0.881176 0.470233
vn 0.062854 0.885357 0.460644
vn 0.110218 0.884815 0.452718
vn 0.116884 0.866095 0.486023
vn 0.117184 0.878009 0.464078
vn 0.103904 0.884196 0.455414
vn 0.092514 0.886372 0.453636
vn 0.089670 0.887393 0.452209
s 1
g near_Ground_LOD polySurface7022
usemtl initialShadingGroup
f 29/1/1 2/2/2 32/3/3 74/4/4
f 32/3/3 9/5/5 42/6/6 74/4/4
f 42/6/6 8/7/7 30/8/8 74/4/4
f 30/8/8 1/9/9 29/1/1 74/4/4
f 31/10/10 3/11/11 34/12/12 75/13/13
f 34/12/12 10/14/14 44/15/15 75/13/13
f 44/15/15 9/5/5 32/3/3 75/13/13
f 32/3/3 2/2/2 31/10/10 75/13/13
f 33/16/16 4/17/17 36/18/18 76/19/19
f 36/18/18 11/20/20 46/21/21 76/19/19
f 46/21/21 10/14/14 34/12/12 76/19/19
f 34/12/12 3/11/11 33/16/16 76/19/19
f 35/22/22 5/23/23 38/24/24 77/25/25
f 38/24/24 12/26/26 48/27/27 77/25/25
f 48/27/27 11/20/20 36/18/18 77/25/25
f 36/18/18 4/17/17 35/22/22 77/25/25
f 37/28/28 6/29/29 40/30/30 78/31/31
f 40/30/30 13/32/32 50/33/33 78/31/31
f 50/33/33 12/26/26 38/24/24 78/31/31
f 38/24/24 5/23/23 37/28/28 78/31/31
f 39/34/34 7/35/35 41/36/36 79/37/37
f 41/36/36 14/38/38 52/39/39 79/37/37
f 52/39/39 13/32/32 40/30/30 79/37/37
f 40/30/30 6/29/29 39/34/34 79/37/37
f 42/6/6 9/5/5 45/40/40 80/41/41
f 45/40/40 16/42/42 55/43/43 80/41/41
f 55/43/43 15/44/44 43/45/45 80/41/41
f 43/45/45 8/7/7 42/6/6 80/41/41
f 44/15/15 10/14/14 47/46/46 81/47/47
f 47/46/46 17/48/48 56/49/49 81/47/47
f 56/49/49 16/42/42 45/40/40 81/47/47
f 45/40/40 9/5/5 44/15/15 81/47/47
f 46/21/21 11/20/20 49/50/50 82/51/51
f 49/50/50 18/52/52 57/53/53 82/51/51
f 57/53/53 17/48/48 47/46/46 82/51/51
f 47/46/46 10/14/14 46/21/21 82/51/51
f 48/27/27 12/26/26 51/54/54 83/55/55
f 51/54/54 19/56/56 58/57/57 83/55/55
f 58/57/57 18/52/52 49/50/50 83/55/55
f 49/50/50 11/20/20 48/27/27 83/55/55
f 50/33/33 13/32/32 53/58/58 84/59/59
f 53/58/58 20/60/60 59/61/61 84/59/59
f 59/61/61 19/56/56 51/54/54 84/59/59
f 51/54/54 12/26/26 50/33/33 84/59/59
f 52/39/39 14/38/38 54/62/62 85/63/63
f 54/62/62 21/64/64 60/65/65 85/63/63
f 60/65/65 20/60/60 53/58/58 85/63/63
f 53/58/58 13/32/32 52/39/39 85/63/63
f 29/1/1 1/9/9 61/66/66 86/67/67
f 61/66/66 22/68/68 63/69/69 86/67/67
f 63/69/69 23/70/70 62/71/71 86/67/67
f 62/71/71 2/2/2 29/1/1 86/67/67
f 31/10/10 2/2/2 62/71/71 87/72/72
f 62/71/71 23/70/70 65/73/73 87/72/72
f 65/73/73 24/74/74 64/75/75 87/72/72
f 64/75/75 3/11/11 31/10/10 87/72/72
f 33/16/16 3/11/11 64/75/75 88/76/76
f 64/75/75 24/74/74 67/77/77 88/76/76
f 67/77/77 25/78/78 66/79/79 88/76/76
f 66/79/79 4/17/17 33/16/16 88/76/76
f 35/22/22 4/17/17 66/79/79 89/80/80
f 66/79/79 25/78/78 69/81/81 89/80/80
f 69/81/81 26/82/82 68/83/83 89/80/80
f 68/83/83 5/23/23 35/22/22 89/80/80
f 37/28/28 5/23/23 68/83/83 90/84/84
f 68/83/83 26/82/82 71/85/85 90/84/84
f 71/85/85 27/86/86 70/87/87 90/84/84
f 70/87/87 6/29/29 37/28/28 90/84/84
f 39/34/34 6/29/29 70/87/87 91/88/88
f 70/87/87 27/86/86 73/89/89 91/88/88
f 73/89/89 28/90/90 72/91/91 91/88/88
f 72/91/91 7/35/35 39/34/34 91/88/88
