# This file uses centimeters as units for non-parametric coordinates.

mtllib Left_Lane_Ground.mtl
g default
v -2.476400 -0.182458 1.282043
v -3.077542 -0.182458 1.360172
v -3.352025 -0.182458 1.362846
v -3.385455 -0.182458 1.241217
v -3.339837 -0.182458 1.087255
v -3.088935 -0.182458 0.785032
v -2.969186 -0.182458 0.528428
v -2.934972 -0.182458 0.254717
v -2.979993 -0.182458 -0.129064
v -3.083232 -0.182458 -0.610078
v -3.130104 -0.182458 -1.103120
v -3.107973 -0.182458 -1.526818
v -3.026209 -0.182458 -1.906461
v -3.065161 -0.182458 -2.166146
v -3.151660 -0.182458 -2.396860
v -3.590739 -0.182458 -2.699082
v -4.024115 -0.182458 -2.567929
v -4.189482 -0.182458 -2.590739
v -4.451788 -0.192295 -2.733296
v -4.084130 -0.182458 -3.319919
v -3.750403 -0.182458 -3.458371
v -3.321897 -0.182458 -3.246734
v -2.777837 -0.184802 -3.390078
v -2.527257 -0.182458 1.035934
v -2.514464 -0.182458 0.808427
v -2.478679 -0.182458 0.507879
v -2.488895 -0.182458 0.263270
v -2.566761 -0.182458 -0.142580
v -2.662683 -0.182458 -0.559917
v -2.717097 -0.182458 -1.029109
v -2.684444 -0.182458 -1.480363
v -2.577449 -0.182458 -1.866925
v -2.529412 -0.182458 -2.204857
v -2.594988 -0.182458 -2.494700
v -2.706898 -0.182458 -2.941568
v -3.418856 -0.134477 1.349665
v -3.472459 -0.134477 1.210298
v -3.386695 -0.134477 1.033410
v -3.145484 -0.134477 0.738596
v -3.054360 -0.134477 0.502746
v -3.038279 -0.134477 0.240094
v -3.076571 -0.134477 -0.103775
v -3.188366 -0.134477 -0.630302
v -3.223833 -0.134477 -1.156083
v -3.218809 -0.134477 -1.541466
v -3.156204 -0.134477 -1.871843
v -3.195498 -0.134477 -2.135979
v -3.327732 -0.134477 -2.397148
v -3.568943 -0.134477 -2.563315
v -4.035285 -0.134477 -2.456110
v -4.228254 -0.134477 -2.488272
v -4.565620 -0.134477 -2.678768
v -3.992403 -0.134517 1.435429
v -4.461318 -0.137699 1.651832
v -4.973150 -0.151295 1.885495
v -5.511060 -0.158594 2.120262
v -5.635227 -0.162241 2.172471
v -6.308647 -0.134477 2.301566
v -6.718238 -0.134477 2.387847
v -7.005400 -0.134477 2.385496
v -7.026670 -0.134477 2.965078
v -7.606611 -0.134477 2.922753
v -8.249958 -0.134477 2.644470
v -8.781872 -0.134477 2.323606
v -9.208222 -0.134477 1.935495
v -9.549531 -0.134477 1.310358
v -9.703735 -0.134477 0.835269
v -9.834873 -0.134477 0.367519
v -9.831774 -0.134477 -0.206512
v -9.771557 -0.134477 -0.717493
v -9.437051 -0.134477 -1.372480
v -9.040508 -0.134477 -1.824129
v -8.267580 -0.134477 -2.302501
v -7.584828 -0.134477 -2.406008
v -6.711827 -0.134477 -2.276671
v -5.449190 -0.133001 -2.099705
v -5.175172 -0.134486 -2.074319
v -4.938207 -0.134477 -2.257508
v -4.758112 -0.134477 -2.479469
v -7.327971 -0.134477 -2.395659
v -7.036751 -0.134477 -2.346204
v -6.377602 -0.133712 -2.201325
v -6.173028 -0.133365 -2.238255
v -5.739678 -0.133066 -2.122620
v -5.968848 -0.133157 -2.179103
v -2.510150 -0.182458 1.187045
vt 0.241066 0.803743
vt 0.228960 0.862201
vt 0.189788 0.800350
vt 0.171813 0.845977
vt 0.236263 0.782438
vt 0.214670 0.749677
vt 0.749009 0.848503
vt 0.765143 0.851526
vt 0.751110 0.963827
vt 0.767791 0.887582
vt 0.763935 0.967232
vt 0.729658 0.856045
vt 0.731093 0.963146
vt 0.692599 0.891974
vt 0.701349 0.967100
vt 0.659945 0.910273
vt 0.662250 0.974810
vt 0.624198 0.917606
vt 0.630033 0.976012
vt 0.573257 0.915831
vt 0.575945 0.970152
vt 0.520134 0.962095
vt 0.509044 0.907481
vt 0.443944 0.906601
vt 0.457939 0.959985
vt 0.388645 0.913816
vt 0.398949 0.968894
vt 0.339558 0.928273
vt 0.349177 0.986750
vt 0.304891 0.925791
vt 0.305239 0.996412
vt 0.273491 0.916719
vt 0.266503 0.990726
vt 0.206742 0.980768
vt 0.160046 0.903477
vt 0.147196 0.976364
vt 0.743693 0.835797
vt 0.762660 0.840949
vt 0.721158 0.848770
vt 0.685013 0.883478
vt 0.655218 0.897893
vt 0.621047 0.902825
vt 0.575586 0.901459
vt 0.505330 0.892456
vt 0.435952 0.893340
vt 0.385419 0.898139
vt 0.342743 0.909763
vt 0.307763 0.907397
vt 0.272252 0.892807
vt 0.247976 0.863109
vt 0.256864 0.800873
vt 0.250568 0.775807
vt 0.231047 0.740800
vt 0.767596 0.765028
vt 0.935916 0.350935
vt 0.860151 0.359881
vt 0.924206 0.275344
vt 0.259215 0.716980
vt 0.880881 0.193948
vt 0.833161 0.127616
vt 0.288154 0.684391
vt 0.232068 0.244201
vt 0.286579 0.137776
vt 0.225752 0.334822
vt 0.423907 0.030164
vt 0.490265 0.016840
vt 0.341582 0.080985
vt 0.565497 0.010335
vt 0.628219 0.022559
vt 0.777739 0.075838
vt 0.692150 0.037729
vt 0.229837 0.368390
vt 0.239418 0.406046
vt 0.251988 0.447912
vt 0.265416 0.490934
vt 0.275269 0.517514
vt 0.863511 0.397507
vt 0.856550 0.452128
vt 0.283341 0.539616
vt 0.846782 0.541797
vt 0.296894 0.572574
vt 0.841255 0.558632
vt 0.816190 0.631653
vt 0.310890 0.613969
vt 0.321296 0.649290
vt 0.790990 0.701244
vn 0.000000 1.000000 0.000000
vn 0.000000 1.000000 0.000000
vn 0.000000 1.000000 0.000000
vn 0.000000 1.000000 0.000000
vn 0.000000 1.000000 0.000000
vn 0.000000 1.000000 0.000000
vn 0.000000 1.000000 0.000000
vn -0.032381 0.999432 -0.009382
vn -0.032381 0.999432 -0.009382
vn -0.032381 0.999432 -0.009382
vn 0.000000 1.000000 0.000000
vn 0.000000 1.000000 0.000000
vn 0.000000 1.000000 0.000000
vn 0.000000 1.000000 0.000000
vn 0.000000 1.000000 0.000000
vn 0.000000 1.000000 0.000000
vn 0.000000 1.000000 0.000000
vn 0.000000 1.000000 0.000000
vn 0.000000 1.000000 0.000000
vn 0.000000 1.000000 0.000000
vn 0.000000 1.000000 0.000000
vn 0.000000 1.000000 0.000000
vn 0.000000 1.000000 0.000000
vn 0.000000 1.000000 0.000000
vn 0.000000 1.000000 0.000000
vn 0.000000 1.000000 0.000000
vn 0.000000 1.000000 0.000000
vn 0.000000 1.000000 0.000000
vn 0.000000 1.000000 0.000000
vn 0.000000 1.000000 0.000000
vn 0.000000 1.000000 0.000000
vn 0.000000 1.000000 0.000000
vn 0.000000 1.000000 0.000000
vn 0.000000 1.000000 0.000000
vn 0.000000 1.000000 0.000000
vn 0.000000 1.000000 0.000000
vn 0.000000 1.000000 0.000000
vn 0.000000 1.000000 0.000000
vn 0.000000 1.000000 0.000000
vn 0.000000 1.000000 0.000000
vn 0.000000 1.000000 0.000000
vn 0.000000 1.000000 0.000000
vn 0.000000 1.000000 0.000000
vn 0.000000 1.000000 0.000000
vn 0.000000 1.000000 0.000000
vn 0.000000 1.000000 0.000000
vn 0.000000 1.000000 0.000000
vn 0.000000 1.000000 0.000000
vn 0.000000 1.000000 0.000000
vn 0.000000 1.000000 0.000000
vn 0.000000 1.000000 0.000000
vn 0.000000 1.000000 0.000000
vn 0.000000 1.000000 0.000000
vn 0.000000 1.000000 0.000000
vn 0.000000 1.000000 0.000000
vn 0.000000 1.000000 0.000000
vn 0.000000 1.000000 0.000000
vn 0.000000 1.000000 0.000000
vn 0.000000 1.000000 0.000000
vn 0.000000 1.000000 0.000000
vn 0.000000 1.000000 0.000000
vn 0.000000 1.000000 0.000000
vn 0.000000 1.000000 0.000000
vn 0.000819 0.999998 -0.001650
vn 0.000819 0.999998 -0.001650
vn 0.000819 0.999998 -0.001650
vn 0.000819 0.999998 -0.001650
vn 0.000819 0.999998 -0.001650
vn 0.557865 0.808814 -0.186029
vn 0.557865 0.808814 -0.186029
vn 0.557865 0.808814 -0.186029
vn 0.557865 0.808814 -0.186029
vn 0.487649 0.851292 0.193648
vn 0.487649 0.851292 0.193648
vn 0.487649 0.851292 0.193648
vn 0.487649 0.851292 0.193648
vn 0.428791 0.831397 0.353435
vn 0.428791 0.831397 0.353435
vn 0.428791 0.831397 0.353435
vn 0.428791 0.831397 0.353435
vn 0.475730 0.855677 0.203711
vn 0.475730 0.855677 0.203711
vn 0.475730 0.855677 0.203711
vn 0.475730 0.855677 0.203711
vn 0.446198 0.893956 0.041840
vn 0.446198 0.893956 0.041840
vn 0.446198 0.893956 0.041840
vn 0.446198 0.893956 0.041840
vn 0.430134 0.901421 -0.049249
vn 0.430134 0.901421 -0.049249
vn 0.430134 0.901421 -0.049249
vn 0.430134 0.901421 -0.049249
vn 0.425960 0.900163 -0.090910
vn 0.425960 0.900163 -0.090910
vn 0.425960 0.900163 -0.090910
vn 0.425960 0.900163 -0.090910
vn 0.445025 0.894796 -0.035966
vn 0.445025 0.894796 -0.035966
vn 0.445025 0.894796 -0.035966
vn 0.445025 0.894796 -0.035966
vn 0.420825 0.907032 0.014125
vn 0.420825 0.907032 0.014125
vn 0.420825 0.907032 0.014125
vn 0.420825 0.907032 0.014125
vn 0.374526 0.924084 0.076152
vn 0.374526 0.924084 0.076152
vn 0.374526 0.924084 0.076152
vn 0.374526 0.924084 0.076152
vn 0.334464 0.941083 -0.049960
vn 0.334464 0.941083 -0.049960
vn 0.334464 0.941083 -0.049960
vn 0.334464 0.941083 -0.049960
vn 0.285174 0.950050 -0.126813
vn 0.285174 0.950050 -0.126813
vn 0.285174 0.950050 -0.126813
vn 0.285174 0.950050 -0.126813
vn 0.246245 0.900807 -0.357645
vn 0.246245 0.900807 -0.357645
vn 0.246245 0.900807 -0.357645
vn 0.246245 0.900807 -0.357645
vn -0.094382 0.929609 -0.356258
vn -0.094382 0.929609 -0.356258
vn -0.094382 0.929609 -0.356258
vn -0.094382 0.929609 -0.356258
vn 0.060768 0.916183 -0.396126
vn 0.060768 0.916183 -0.396126
vn 0.060768 0.916183 -0.396126
vn 0.060768 0.916183 -0.396126
vn 0.167702 0.914282 -0.368733
vn 0.167702 0.914282 -0.368733
vn 0.167702 0.914282 -0.368733
vn 0.167702 0.914282 -0.368733
vn 0.000365 0.999999 0.001107
vn 0.000365 0.999999 0.001107
vn 0.000365 0.999999 0.001107
vn 0.000365 0.999999 0.001107
vn 0.000365 0.999999 0.001107
vn 0.000365 0.999999 0.001107
vn 0.000365 0.999999 0.001107
vn 0.000365 0.999999 0.001107
vn 0.000365 0.999999 0.001107
vn 0.000365 0.999999 0.001107
vn 0.000365 0.999999 0.001107
vn 0.000365 0.999999 0.001107
vn 0.000365 0.999999 0.001107
vn 0.000365 0.999999 0.001107
vn 0.000365 0.999999 0.001107
vn 0.000365 0.999999 0.001107
vn 0.000365 0.999999 0.001107
vn 0.000365 0.999999 0.001107
vn 0.000365 0.999999 0.001107
vn 0.000365 0.999999 0.001107
vn 0.000365 0.999999 0.001107
vn 0.000365 0.999999 0.001107
vn 0.000365 0.999999 0.001107
vn 0.000365 0.999999 0.001107
vn 0.000365 0.999999 0.001107
vn 0.000365 0.999999 0.001107
vn 0.000365 0.999999 0.001107
vn 0.000365 0.999999 0.001107
vn 0.000365 0.999999 0.001107
vn 0.000365 0.999999 0.001107
vn 0.000365 0.999999 0.001107
vn 0.000365 0.999999 0.001107
vn 0.000365 0.999999 0.001107
vn 0.000365 0.999999 0.001107
vn 0.000365 0.999999 0.001107
vn 0.000365 0.999999 0.001107
vn 0.000365 0.999999 0.001107
vn 0.000365 0.999999 0.001107
vn 0.000365 0.999999 0.001107
vn 0.000365 0.999999 0.001107
vn 0.000365 0.999999 0.001107
vn 0.000365 0.999999 0.001107
vn 0.000365 0.999999 0.001107
vn 0.000365 0.999999 0.001107
vn 0.000365 0.999999 0.001107
vn 0.000365 0.999999 0.001107
vn 0.000365 0.999999 0.001107
vn 0.000365 0.999999 0.001107
vn 0.000365 0.999999 0.001107
vn 0.000365 0.999999 0.001107
s 1
g polySurface6291 polySurface6047
usemtl Left_Home:initialShadingGroup
f 17/1/1 16/2/2 20/3/3
f 20/3/3 16/2/2 21/4/4
s off
f 20/3/5 18/5/6 17/1/7
f 20/3/8 19/6/9 18/5/10
s 4
f 4/7/11 3/8/12 86/9/13
f 3/8/12 2/10/14 86/9/13
f 2/10/14 1/11/15 86/9/13
s 5
f 4/7/16 86/9/17 5/12/18
f 5/12/18 86/9/17 24/13/19
s 6
f 5/12/20 24/13/21 6/14/22
f 6/14/22 24/13/21 25/15/23
s 7
f 6/14/24 25/15/25 7/16/26
f 7/16/26 25/15/25 26/17/27
s 8
f 7/16/28 26/17/29 8/18/30
f 8/18/30 26/17/29 27/19/31
s 9
f 9/20/32 8/18/33 28/21/34
f 28/21/34 8/18/33 27/19/35
s 10
f 28/21/36 29/22/37 9/20/38
f 9/20/38 29/22/37 10/23/39
s 11
f 11/24/40 10/23/41 30/25/42
f 30/25/42 10/23/41 29/22/43
s 12
f 12/26/44 11/24/45 31/27/46
f 31/27/46 11/24/45 30/25/47
s 13
f 12/26/48 31/27/49 13/28/50
f 13/28/50 31/27/49 32/29/51
s 14
f 13/28/52 32/29/53 14/30/54
f 14/30/54 32/29/53 33/31/55
s 15
f 15/32/56 14/30/57 34/33/58
f 34/33/58 14/30/57 33/31/59
s 16
f 16/2/60 15/32/61 35/34/62
f 35/34/62 15/32/61 34/33/63
s 17
f 21/4/64 16/2/65 22/35/66
f 16/2/65 35/34/67 22/35/66
f 23/36/68 22/35/66 35/34/67
s 18
f 37/37/69 36/38/70 4/7/71
f 4/7/71 36/38/70 3/8/72
s 19
f 38/39/73 37/37/74 5/12/75
f 5/12/75 37/37/74 4/7/76
s 20
f 39/40/77 38/39/78 6/14/79
f 6/14/79 38/39/78 5/12/80
s 21
f 40/41/81 39/40/82 7/16/83
f 7/16/83 39/40/82 6/14/84
s 22
f 41/42/85 40/41/86 8/18/87
f 8/18/87 40/41/86 7/16/88
s 23
f 42/43/89 41/42/90 9/20/91
f 9/20/91 41/42/90 8/18/92
s 24
f 43/44/93 42/43/94 10/23/95
f 10/23/95 42/43/94 9/20/96
s 25
f 44/45/97 43/44/98 11/24/99
f 11/24/99 43/44/98 10/23/100
s 26
f 45/46/101 44/45/102 12/26/103
f 12/26/103 44/45/102 11/24/104
s 27
f 13/28/105 46/47/106 12/26/107
f 12/26/107 46/47/106 45/46/108
s 28
f 14/30/109 47/48/110 13/28/111
f 13/28/111 47/48/110 46/47/112
s 29
f 48/49/113 47/48/114 15/32/115
f 15/32/115 47/48/114 14/30/116
s 30
f 49/50/117 48/49/118 16/2/119
f 16/2/119 48/49/118 15/32/120
s 31
f 50/51/121 49/50/122 17/1/123
f 17/1/123 49/50/122 16/2/124
s 32
f 51/52/125 50/51/126 18/5/127
f 18/5/127 50/51/126 17/1/128
s 33
f 19/6/129 52/53/130 18/5/131
f 18/5/131 52/53/130 51/52/132
s 34
f 36/38/133 37/37/134 53/54/135
f 61/55/136 60/56/137 62/57/138
f 52/53/139 79/58/140 51/52/141
f 62/57/138 60/56/137 63/59/142
f 49/50/143 50/51/144 48/49/145
f 48/49/145 50/51/144 47/48/146
f 47/48/146 50/51/144 46/47/147
f 46/47/147 50/51/144 45/46/148
f 63/59/142 60/56/137 64/60/149
f 37/37/134 38/39/150 53/54/135
f 79/58/140 78/61/151 51/52/141
f 73/62/152 72/63/153 74/64/154
f 70/65/155 69/66/156 71/67/157
f 68/68/158 67/69/159 69/66/156
f 65/70/160 64/60/149 66/71/161
f 64/60/149 60/56/137 66/71/161
f 66/71/161 60/56/137 67/69/159
f 67/69/159 60/56/137 69/66/156
f 69/66/156 60/56/137 71/67/157
f 71/67/157 60/56/137 72/63/153
f 72/63/153 60/56/137 74/64/154
f 74/64/154 60/56/137 80/72/162
f 80/72/162 60/56/137 81/73/163
f 81/73/163 60/56/137 75/74/164
f 75/74/164 60/56/137 82/75/165
f 82/75/165 60/56/137 83/76/166
f 60/56/137 59/77/167 83/76/166
f 59/77/167 58/78/168 83/76/166
f 83/76/166 58/78/168 85/79/169
f 58/78/168 57/80/170 85/79/169
f 85/79/169 57/80/170 84/81/171
f 57/80/170 56/82/172 84/81/171
f 56/82/172 55/83/173 84/81/171
f 84/81/171 55/83/173 76/84/174
f 76/84/174 55/83/173 77/85/175
f 55/83/173 54/86/176 77/85/175
f 54/86/176 53/54/135 77/85/175
f 53/54/135 38/39/150 77/85/175
f 38/39/150 39/40/177 77/85/175
f 39/40/177 40/41/178 77/85/175
f 40/41/178 41/42/179 77/85/175
f 41/42/179 42/43/180 77/85/175
f 42/43/180 43/44/181 77/85/175
f 43/44/181 44/45/182 77/85/175
f 77/85/175 44/45/182 78/61/151
f 78/61/151 44/45/182 51/52/141
f 44/45/182 45/46/148 51/52/141
f 45/46/148 50/51/144 51/52/141
