# This file uses centimeters as units for non-parametric coordinates.

mtllib right_lane_Ground.mtl
g default
v 2.471717 -0.182458 1.169660
v 3.077542 -0.182458 1.360172
v 3.366073 -0.182458 1.264510
v 3.399503 -0.182458 1.142882
v 3.353884 -0.182458 1.059970
v 3.088935 -0.182458 0.785032
v 2.969186 -0.182458 0.528428
v 2.934972 -0.182458 0.254717
v 2.979993 -0.182458 -0.129064
v 3.083232 -0.182458 -0.610078
v 3.130104 -0.182458 -1.103120
v 3.107973 -0.182458 -1.526818
v 3.026209 -0.182458 -1.906461
v 3.065161 -0.182458 -2.166146
v 3.151660 -0.182458 -2.396860
v 3.590739 -0.182458 -2.699082
v 4.024115 -0.182458 -2.567929
v 4.189482 -0.182458 -2.590739
v 4.451788 -0.192295 -3.048637
v 4.084130 -0.182458 -2.954346
v 3.750403 -0.182458 -3.121054
v 3.321897 -0.182458 -3.246734
v 2.777837 -0.184802 -3.390078
v 2.527257 -0.182458 1.035934
v 2.514464 -0.182458 0.808427
v 2.478679 -0.182458 0.507879
v 2.488895 -0.182458 0.263270
v 2.566761 -0.182458 -0.142580
v 2.662683 -0.182458 -0.559917
v 2.717097 -0.182458 -1.029109
v 2.684444 -0.182458 -1.480363
v 2.577449 -0.182458 -1.866925
v 2.529412 -0.182458 -2.204857
v 2.594988 -0.182458 -2.494700
v 2.706898 -0.182458 -2.941568
v 3.432904 -0.134477 1.251329
v 3.486507 -0.134477 1.111963
v 3.386695 -0.134477 1.033410
v 3.145484 -0.134477 0.738596
v 3.054360 -0.134477 0.502746
v 3.038279 -0.134477 0.240094
v 3.076571 -0.134477 -0.103775
v 3.188366 -0.134477 -0.630302
v 3.223833 -0.134477 -1.156083
v 3.218809 -0.134477 -1.541466
v 3.156204 -0.134477 -1.871843
v 3.195498 -0.134477 -2.135979
v 3.327732 -0.134477 -2.397148
v 3.568943 -0.134477 -2.563315
v 4.035285 -0.134477 -2.456110
v 4.228254 -0.134477 -2.488272
v 4.505009 -0.134477 -2.930612
v 3.922163 -0.134517 1.486938
v 4.391078 -0.137699 1.661198
v 4.935689 -0.151295 1.885495
v 5.564966 -0.158594 2.065261
v 5.742928 -0.162241 2.116280
v 6.245441 -0.045116 2.427559
v 6.521567 -0.045116 2.564099
v 6.668249 -0.045116 2.814610
v 7.026670 -0.045116 2.841473
v 7.681534 -0.045116 2.818667
v 8.249958 -0.045116 2.644470
v 8.781872 -0.045116 2.416428
v 9.348389 -0.045116 1.935495
v 9.549531 -0.045116 1.310358
v 9.703735 -0.045116 0.835269
v 9.834873 -0.045116 0.367519
v 9.831774 -0.045116 -0.206512
v 9.896792 -0.045116 -0.717493
v 9.582411 -0.045116 -1.372480
v 9.040508 -0.045116 -1.824129
v 8.267580 -0.045116 -2.302501
v 7.584828 -0.045116 -2.406008
v 6.435244 -0.134477 -2.803610
v 5.417442 -0.133001 -2.241535
v 5.143423 -0.134486 -2.368665
v 4.897800 -0.134477 -2.377754
v 4.826320 -0.134477 -2.805199
v 7.327971 -0.045116 -2.632643
v 6.651247 -0.045116 -2.973304
v 6.300476 -0.133712 -2.611696
v 6.170142 -0.133365 -2.523175
v 5.636648 -0.133066 -2.342148
v 5.842174 -0.133157 -2.476132
v 2.505467 -0.182458 1.074662
v 6.215186 -0.136967 -2.079296
v 6.290109 -0.045116 -1.892516
v 5.773732 -0.141735 -1.617480
v 6.051754 -0.045116 -1.447879
v 5.447199 -0.145914 -0.692499
v 5.785698 -0.045116 -0.613099
v 5.375203 -0.150945 0.344556
v 5.701560 -0.045116 0.368356
v 5.604930 -0.155669 1.187490
v 5.940401 -0.045116 1.180674
v 6.084711 -0.158955 1.713417
v 6.483372 -0.045116 1.715509
vt 0.047627 0.165545
vt 0.104134 0.146423
vt 0.067934 0.210410
vt 0.119194 0.204448
vt 0.115442 0.226055
vt 0.095426 0.259992
vt 0.613763 0.135348
vt 0.607991 0.016935
vt 0.629757 0.131579
vt 0.643562 0.093678
vt 0.620693 0.012968
vt 0.602683 0.019518
vt 0.594603 0.128232
vt 0.572563 0.017321
vt 0.567865 0.093257
vt 0.532984 0.011765
vt 0.534062 0.076620
vt 0.500664 0.012226
vt 0.497798 0.071101
vt 0.446778 0.075438
vt 0.446746 0.020824
vt 0.391183 0.031686
vt 0.382788 0.087014
vt 0.317538 0.091145
vt 0.328903 0.036905
vt 0.261713 0.086675
vt 0.269295 0.030916
vt 0.218477 0.015499
vt 0.211757 0.074630
vt 0.173929 0.008008
vt 0.177111 0.078850
vt 0.146071 0.089521
vt 0.135363 0.015646
vt 0.075921 0.028615
vt 0.016422 0.036005
vt 0.032949 0.108464
vt 0.627538 0.142468
vt 0.608849 0.148349
vt 0.597835 0.135893
vt 0.560699 0.102049
vt 0.529930 0.089313
vt 0.495371 0.086093
vt 0.449830 0.089737
vt 0.379812 0.102274
vt 0.310188 0.104854
vt 0.259267 0.102568
vt 0.215879 0.093044
vt 0.180919 0.097167
vt 0.146031 0.113574
vt 0.123171 0.144569
vt 0.135188 0.206543
vt 0.130128 0.231998
vt 0.112304 0.268085
vt 0.255142 0.945042
vt 0.197876 0.871506
vt 0.198592 0.579169
vt 0.138135 0.767353
vt 0.127486 0.676762
vt 0.129988 0.642897
vt 0.109523 0.631807
vt 0.144203 0.558153
vt 0.159264 0.516963
vt 0.174955 0.530419
vt 0.656298 0.207910
vt 0.141752 0.290573
vt 0.167816 0.489812
vt 0.267736 0.494575
vt 0.174810 0.467239
vt 0.186757 0.433513
vt 0.198725 0.391299
vt 0.373752 0.473667
vt 0.207393 0.355357
vt 0.731996 0.451103
vt 0.677291 0.494175
vt 0.725917 0.427192
vt 0.601128 0.479034
vt 0.704764 0.343367
vt 0.677382 0.270538
vt 0.488351 0.471303
vt 0.172404 0.321809
vt 0.289004 0.543707
vt 0.340316 0.989395
vt 0.382709 0.529120
vt 0.408125 0.982996
vt 0.489861 0.524767
vt 0.483972 0.985833
vt 0.598417 0.536260
vt 0.546313 0.970473
vt 0.609706 0.952068
vt 0.676091 0.548826
vt 0.693106 0.928089
vt 0.758960 0.855281
vt 0.748619 0.531130
vt 0.791317 0.786003
vt 0.816721 0.711694
vt 0.822502 0.625332
vt 0.807712 0.577491
vt 0.775260 0.557062
vn 0.000000 1.000000 0.000000
vn 0.000000 1.000000 0.000000
vn 0.000000 1.000000 0.000000
vn 0.000000 1.000000 0.000000
vn 0.000000 1.000000 0.000000
vn 0.000000 1.000000 0.000000
vn 0.000000 1.000000 0.000000
vn 0.032381 0.999432 -0.009382
vn 0.032381 0.999432 -0.009382
vn 0.032381 0.999432 -0.009382
vn 0.000000 1.000000 0.000000
vn 0.000000 1.000000 0.000000
vn 0.000000 1.000000 0.000000
vn 0.000000 1.000000 0.000000
vn 0.000000 1.000000 0.000000
vn 0.000000 1.000000 0.000000
vn 0.000000 1.000000 0.000000
vn 0.000000 1.000000 0.000000
vn 0.000000 1.000000 0.000000
vn 0.000000 1.000000 0.000000
vn 0.000000 1.000000 0.000000
vn 0.000000 1.000000 0.000000
vn 0.000000 1.000000 0.000000
vn 0.000000 1.000000 0.000000
vn 0.000000 1.000000 0.000000
vn 0.000000 1.000000 0.000000
vn 0.000000 1.000000 0.000000
vn 0.000000 1.000000 0.000000
vn 0.000000 1.000000 0.000000
vn 0.000000 1.000000 0.000000
vn 0.000000 1.000000 0.000000
vn 0.000000 1.000000 0.000000
vn 0.000000 1.000000 0.000000
vn 0.000000 1.000000 0.000000
vn 0.000000 1.000000 0.000000
vn 0.000000 1.000000 0.000000
vn 0.000000 1.000000 0.000000
vn 0.000000 1.000000 0.000000
vn 0.000000 1.000000 0.000000
vn 0.000000 1.000000 0.000000
vn 0.000000 1.000000 0.000000
vn 0.000000 1.000000 0.000000
vn 0.000000 1.000000 0.000000
vn 0.000000 1.000000 0.000000
vn 0.000000 1.000000 0.000000
vn 0.000000 1.000000 0.000000
vn 0.000000 1.000000 0.000000
vn 0.000000 1.000000 0.000000
vn 0.000000 1.000000 0.000000
vn 0.000000 1.000000 0.000000
vn 0.000000 1.000000 0.000000
vn 0.000000 1.000000 0.000000
vn 0.000000 1.000000 0.000000
vn 0.000000 1.000000 0.000000
vn 0.000000 1.000000 0.000000
vn 0.000000 1.000000 0.000000
vn 0.000000 1.000000 0.000000
vn 0.000000 1.000000 0.000000
vn 0.000000 1.000000 0.000000
vn 0.000000 1.000000 0.000000
vn 0.000000 1.000000 0.000000
vn 0.000000 1.000000 0.000000
vn 0.000000 1.000000 0.000000
vn -0.000819 0.999998 -0.001650
vn -0.000819 0.999998 -0.001650
vn -0.000819 0.999998 -0.001650
vn -0.000819 0.999998 -0.001650
vn -0.000819 0.999998 -0.001650
vn -0.557865 0.808814 -0.186029
vn -0.557865 0.808814 -0.186029
vn -0.557865 0.808814 -0.186029
vn -0.557865 0.808814 -0.186029
vn -0.604449 0.701221 0.378063
vn -0.604449 0.701221 0.378063
vn -0.604449 0.701221 0.378063
vn -0.604449 0.701221 0.378063
vn -0.583611 0.555456 0.592341
vn -0.583611 0.555456 0.592341
vn -0.583611 0.555456 0.592341
vn -0.583611 0.555456 0.592341
vn -0.475730 0.855677 0.203711
vn -0.475730 0.855677 0.203711
vn -0.475730 0.855677 0.203711
vn -0.475730 0.855677 0.203711
vn -0.446198 0.893956 0.041840
vn -0.446198 0.893956 0.041840
vn -0.446198 0.893956 0.041840
vn -0.446198 0.893956 0.041840
vn -0.430134 0.901421 -0.049249
vn -0.430134 0.901421 -0.049249
vn -0.430134 0.901421 -0.049249
vn -0.430134 0.901421 -0.049249
vn -0.425960 0.900163 -0.090910
vn -0.425960 0.900163 -0.090910
vn -0.425960 0.900163 -0.090910
vn -0.425960 0.900163 -0.090910
vn -0.445025 0.894796 -0.035966
vn -0.445025 0.894796 -0.035966
vn -0.445025 0.894796 -0.035966
vn -0.445025 0.894796 -0.035966
vn -0.420825 0.907032 0.014125
vn -0.420825 0.907032 0.014125
vn -0.420825 0.907032 0.014125
vn -0.420825 0.907032 0.014125
vn -0.374526 0.924084 0.076152
vn -0.374526 0.924084 0.076152
vn -0.374526 0.924084 0.076152
vn -0.374526 0.924084 0.076152
vn -0.334464 0.941083 -0.049960
vn -0.334464 0.941083 -0.049960
vn -0.334464 0.941083 -0.049960
vn -0.334464 0.941083 -0.049960
vn -0.285174 0.950050 -0.126813
vn -0.285174 0.950050 -0.126813
vn -0.285174 0.950050 -0.126813
vn -0.285174 0.950050 -0.126813
vn -0.246245 0.900807 -0.357645
vn -0.246245 0.900807 -0.357645
vn -0.246245 0.900807 -0.357645
vn -0.246245 0.900807 -0.357645
vn 0.094382 0.929609 -0.356258
vn 0.094382 0.929609 -0.356258
vn 0.094382 0.929609 -0.356258
vn 0.094382 0.929609 -0.356258
vn -0.060768 0.916183 -0.396126
vn -0.060768 0.916183 -0.396126
vn -0.060768 0.916183 -0.396126
vn -0.060768 0.916183 -0.396126
vn -0.167702 0.914282 -0.368733
vn -0.167702 0.914282 -0.368733
vn -0.167702 0.914282 -0.368733
vn -0.167702 0.914282 -0.368733
vn 0.000000 1.000000 0.000000
vn 0.000000 1.000000 0.000000
vn 0.000000 1.000000 0.000000
vn 0.000000 1.000000 0.000000
vn 0.000000 1.000000 0.000000
vn 0.000000 1.000000 0.000000
vn 0.000000 1.000000 0.000000
vn 0.004845 0.999984 0.003063
vn 0.004845 0.999984 0.003063
vn 0.004845 0.999984 0.003063
vn 0.004845 0.999984 0.003063
vn 0.004845 0.999984 0.003063
vn 0.004845 0.999984 0.003063
vn 0.004845 0.999984 0.003063
vn 0.004845 0.999984 0.003063
vn 0.004845 0.999984 0.003063
vn 0.004845 0.999984 0.003063
vn 0.004845 0.999984 0.003063
vn 0.004845 0.999984 0.003063
vn 0.004845 0.999984 0.003063
vn 0.004845 0.999984 0.003063
vn 0.004845 0.999984 0.003063
vn 0.004845 0.999984 0.003063
vn 0.004845 0.999984 0.003063
vn 0.004845 0.999984 0.003063
vn 0.004845 0.999984 0.003063
vn 0.004845 0.999984 0.003063
vn 0.004845 0.999984 0.003063
vn 0.004845 0.999984 0.003063
vn 0.004845 0.999984 0.003063
vn 0.004845 0.999984 0.003063
vn 0.004845 0.999984 0.003063
vn 0.004845 0.999984 0.003063
vn 0.004845 0.999984 0.003063
vn 0.004845 0.999984 0.003063
vn 0.004845 0.999984 0.003063
vn 0.004845 0.999984 0.003063
vn 0.004845 0.999984 0.003063
vn 0.004845 0.999984 0.003063
vn 0.004845 0.999984 0.003063
vn 0.004845 0.999984 0.003063
vn 0.004845 0.999984 0.003063
vn 0.004845 0.999984 0.003063
vn 0.004845 0.999984 0.003063
vn -0.202695 0.968674 -0.143478
vn -0.202695 0.968674 -0.143478
vn -0.202695 0.968674 -0.143478
vn -0.202695 0.968674 -0.143478
vn -0.214535 0.972739 -0.088058
vn -0.214535 0.972739 -0.088058
vn -0.214535 0.972739 -0.088058
vn -0.214535 0.972739 -0.088058
vn 0.000000 1.000000 0.000000
vn 0.000000 1.000000 0.000000
vn 0.000000 1.000000 0.000000
vn 0.000000 1.000000 0.000000
vn -0.236658 0.970449 -0.047139
vn -0.236658 0.970449 -0.047139
vn -0.236658 0.970449 -0.047139
vn -0.236658 0.970449 -0.047139
vn 0.000000 1.000000 0.000000
vn 0.000000 1.000000 0.000000
vn 0.000000 1.000000 0.000000
vn 0.000000 1.000000 0.000000
vn -0.249984 0.968168 -0.012557
vn -0.249984 0.968168 -0.012557
vn -0.249984 0.968168 -0.012557
vn -0.249984 0.968168 -0.012557
vn 0.000000 1.000000 0.000000
vn 0.000000 1.000000 0.000000
vn 0.000000 1.000000 0.000000
vn 0.000000 1.000000 0.000000
vn -0.258516 0.965857 0.017018
vn -0.258516 0.965857 0.017018
vn -0.258516 0.965857 0.017018
vn -0.258516 0.965857 0.017018
vn 0.000000 1.000000 0.000000
vn 0.000000 1.000000 0.000000
vn 0.000000 1.000000 0.000000
vn 0.000000 1.000000 0.000000
vn 0.000000 1.000000 0.000000
vn -0.264056 0.963574 0.042412
vn -0.264056 0.963574 0.042412
vn -0.264056 0.963574 0.042412
vn -0.264056 0.963574 0.042412
vn 0.000000 1.000000 0.000000
vn 0.000000 1.000000 0.000000
vn 0.000000 1.000000 0.000000
vn 0.000000 1.000000 0.000000
vn 0.000000 1.000000 0.000000
vn -0.211467 0.971537 -0.106763
vn -0.211467 0.971537 -0.106763
vn -0.211467 0.971537 -0.106763
vn -0.211467 0.971537 -0.106763
vn 0.000000 1.000000 0.000000
vn 0.000000 1.000000 0.000000
vn 0.000000 1.000000 0.000000
vn 0.000000 1.000000 0.000000
vn 0.000000 1.000000 0.000000
vn 0.000000 1.000000 0.000000
vn 0.000000 1.000000 0.000000
vn 0.000000 1.000000 0.000000
s 1
g polySurface6292 polySurface6047
usemtl Right_Home:initialShadingGroup
f 21/1/1 16/2/2 20/3/3
f 20/3/3 16/2/2 17/4/4
s off
f 20/3/5 17/4/6 18/5/7
f 20/3/8 18/5/9 19/6/10
s 4
f 4/7/11 86/8/12 3/9/13
f 3/9/13 86/8/12 2/10/14
f 86/8/12 1/11/15 2/10/14
s 5
f 24/12/16 86/8/17 5/13/18
f 5/13/18 86/8/17 4/7/19
s 6
f 25/14/20 24/12/21 6/15/22
f 6/15/22 24/12/21 5/13/23
s 7
f 26/16/24 25/14/25 7/17/26
f 7/17/26 25/14/25 6/15/27
s 8
f 27/18/28 26/16/29 8/19/30
f 8/19/30 26/16/29 7/17/31
s 9
f 9/20/32 28/21/33 8/19/34
f 8/19/34 28/21/33 27/18/35
s 10
f 28/21/36 9/20/37 29/22/38
f 29/22/38 9/20/37 10/23/39
s 11
f 11/24/40 30/25/41 10/23/42
f 10/23/42 30/25/41 29/22/43
s 12
f 12/26/44 31/27/45 11/24/46
f 11/24/46 31/27/45 30/25/47
s 13
f 32/28/48 31/27/49 13/29/50
f 13/29/50 31/27/49 12/26/51
s 14
f 33/30/52 32/28/53 14/31/54
f 14/31/54 32/28/53 13/29/55
s 15
f 15/32/56 34/33/57 14/31/58
f 14/31/58 34/33/57 33/30/59
s 16
f 16/2/60 35/34/61 15/32/62
f 15/32/62 35/34/61 34/33/63
s 17
f 23/35/64 35/34/65 22/36/66
f 35/34/65 16/2/67 22/36/66
f 16/2/67 21/1/68 22/36/66
s 18
f 3/9/69 36/37/70 4/7/71
f 4/7/71 36/37/70 37/38/72
s 19
f 5/13/73 4/7/74 38/39/75
f 38/39/75 4/7/74 37/38/76
s 20
f 6/15/77 5/13/78 39/40/79
f 39/40/79 5/13/78 38/39/80
s 21
f 6/15/81 39/40/82 7/17/83
f 7/17/83 39/40/82 40/41/84
s 22
f 7/17/85 40/41/86 8/19/87
f 8/19/87 40/41/86 41/42/88
s 23
f 8/19/89 41/42/90 9/20/91
f 9/20/91 41/42/90 42/43/92
s 24
f 9/20/93 42/43/94 10/23/95
f 10/23/95 42/43/94 43/44/96
s 25
f 10/23/97 43/44/98 11/24/99
f 11/24/99 43/44/98 44/45/100
s 26
f 11/24/101 44/45/102 12/26/103
f 12/26/103 44/45/102 45/46/104
s 27
f 13/29/105 12/26/106 46/47/107
f 46/47/107 12/26/106 45/46/108
s 28
f 14/31/109 13/29/110 47/48/111
f 47/48/111 13/29/110 46/47/112
s 29
f 14/31/113 47/48/114 15/32/115
f 15/32/115 47/48/114 48/49/116
s 30
f 15/32/117 48/49/118 16/2/119
f 16/2/119 48/49/118 49/50/120
s 31
f 16/2/121 49/50/122 17/4/123
f 17/4/123 49/50/122 50/51/124
s 32
f 17/4/125 50/51/126 18/5/127
f 18/5/127 50/51/126 51/52/128
s 33
f 19/6/129 18/5/130 52/53/131
f 52/53/131 18/5/130 51/52/132
s 34
f 71/54/133 72/55/134 88/56/135
f 72/55/134 73/57/136 88/56/135
f 73/57/136 74/58/137 88/56/135
f 74/58/137 80/59/138 88/56/135
f 81/60/139 88/56/135 80/59/138
s 35
f 75/61/140 82/62/141 87/63/142
f 36/37/143 53/64/144 37/38/145
f 52/53/146 51/52/147 79/65/148
f 82/62/141 83/66/149 87/63/142
f 87/63/142 83/66/149 89/67/150
f 83/66/149 85/68/151 89/67/150
f 85/68/151 84/69/152 89/67/150
f 84/69/152 76/70/153 89/67/150
f 89/67/150 76/70/153 91/71/154
f 76/70/153 77/72/155 91/71/154
f 57/73/156 97/74/157 56/75/158
f 97/74/157 95/76/159 56/75/158
f 56/75/158 95/76/159 55/77/160
f 55/77/160 95/76/159 54/78/161
f 95/76/159 93/79/162 54/78/161
f 54/78/161 93/79/162 53/64/144
f 53/64/144 93/79/162 37/38/145
f 93/79/162 91/71/154 37/38/145
f 91/71/154 77/72/155 37/38/145
f 37/38/145 77/72/155 38/39/163
f 38/39/163 77/72/155 39/40/164
f 39/40/164 77/72/155 40/41/165
f 40/41/165 77/72/155 41/42/166
f 41/42/166 77/72/155 42/43/167
f 42/43/167 77/72/155 43/44/168
f 43/44/168 77/72/155 44/45/169
f 77/72/155 78/80/170 44/45/169
f 44/45/169 78/80/170 45/46/171
f 78/80/170 79/65/148 45/46/171
f 79/65/148 51/52/147 45/46/171
f 51/52/147 50/51/172 45/46/171
f 45/46/171 50/51/172 46/47/173
f 50/51/172 49/50/174 46/47/173
f 46/47/173 49/50/174 47/48/175
f 49/50/174 48/49/176 47/48/175
s 36
f 87/63/177 88/56/178 75/61/179
f 75/61/179 88/56/178 81/60/180
s 37
f 87/63/181 89/67/182 88/56/183
f 88/56/183 89/67/182 90/81/184
s 38
f 88/56/185 90/81/186 71/54/187
f 71/54/187 90/81/186 70/82/188
s 39
f 89/67/189 91/71/190 90/81/191
f 90/81/191 91/71/190 92/83/192
s 40
f 70/82/193 90/81/194 69/84/195
f 69/84/195 90/81/194 92/83/196
s 41
f 91/71/197 93/79/198 92/83/199
f 92/83/199 93/79/198 94/85/200
s 42
f 92/83/201 94/85/202 69/84/203
f 69/84/203 94/85/202 68/86/204
s 43
f 93/79/205 95/76/206 94/85/207
f 94/85/207 95/76/206 96/87/208
s 44
f 68/86/209 94/85/210 67/88/211
f 94/85/210 96/87/212 67/88/211
f 96/87/212 66/89/213 67/88/211
s 45
f 95/76/214 97/74/215 96/87/216
f 96/87/216 97/74/215 98/90/217
s 46
f 66/89/218 96/87/219 65/91/220
f 65/91/220 96/87/219 64/92/221
f 96/87/219 98/90/222 64/92/221
s 47
f 57/73/223 58/93/224 97/74/225
f 97/74/225 58/93/224 98/90/226
s 48
f 64/92/227 98/90/228 63/94/229
f 63/94/229 98/90/228 62/95/230
f 62/95/230 98/90/228 61/96/231
f 61/96/231 98/90/228 60/97/232
f 60/97/232 98/90/228 59/98/233
f 98/90/228 58/93/234 59/98/233
