# This file uses centimeters as units for non-parametric coordinates.

mtllib Deployment_Arrow_Mesh.mtl
g default
v 0.200973 -0.293338 0.048570
v -0.000000 -0.135124 0.399761
v -0.100487 -0.293338 0.048570
v 0.100487 -0.293338 0.048570
v -0.200973 -0.293338 0.048570
v -0.100487 -0.001837 -0.321092
v 0.100487 -0.001837 -0.321092
v 0.100487 -0.204606 -0.182816
v -0.100487 -0.204606 -0.182816
v 0.100487 -0.115306 -0.266274
v -0.100487 -0.115306 -0.266274
v 0.100487 -0.267604 -0.071627
v -0.100487 -0.267604 -0.071627
v 0.148719 -0.286644 0.152263
v -0.148719 -0.286644 0.152263
v 0.096968 -0.254721 0.250102
v -0.096968 -0.254721 0.250102
v 0.045719 -0.200246 0.336243
v -0.045719 -0.200246 0.336243
v -0.100487 -0.284877 -0.012901
v 0.100487 -0.284877 -0.012901
v 0.100487 -0.239040 -0.132105
v -0.100487 -0.239040 -0.132105
v 0.100487 -0.163407 -0.227540
v -0.100487 -0.163407 -0.227540
v 0.100487 -0.058732 -0.298966
v -0.100487 -0.058732 -0.298966
v -0.176353 -0.293446 0.097629
v 0.176353 -0.293446 0.097629
v -0.125104 -0.275116 0.197887
v 0.125104 -0.275116 0.197887
v -0.071846 -0.230684 0.294011
v 0.071846 -0.230684 0.294011
v 0.025621 -0.173354 0.365929
v -0.025621 -0.173354 0.365929
v -0.000000 -0.118576 0.381062
v -0.025621 -0.155827 0.348197
v 0.025621 -0.155827 0.348197
v 0.100487 -0.101229 -0.245740
v -0.100487 -0.101229 -0.245740
v -0.100487 -0.047960 -0.276520
v 0.100487 -0.047960 -0.276520
v 0.100487 -0.244337 -0.062772
v -0.100487 -0.244337 -0.062772
v -0.100487 -0.217422 -0.119760
v 0.100487 -0.217422 -0.119760
v 0.100487 -0.185095 -0.167343
v -0.100487 -0.185095 -0.167343
v -0.100487 -0.146394 -0.209357
v 0.100487 -0.146394 -0.209357
v -0.100487 -0.268484 0.050300
v 0.100487 -0.268484 0.050300
v -0.100487 -0.260531 -0.007676
v 0.100487 -0.260531 -0.007676
v -0.148719 -0.262150 0.147662
v 0.148719 -0.262150 0.147662
v -0.176353 -0.268572 0.096114
v 0.176353 -0.268572 0.096114
v -0.096968 -0.232140 0.239564
v 0.096968 -0.232140 0.239564
v -0.125104 -0.251382 0.190286
v 0.125104 -0.251382 0.190286
v -0.045719 -0.180864 0.320560
v 0.045719 -0.180864 0.320560
v -0.071846 -0.209604 0.280715
v 0.071846 -0.209604 0.280715
v -0.100487 0.007213 -0.297820
v 0.100487 0.007213 -0.297820
v 0.200973 -0.268368 0.048625
v -0.200973 -0.268368 0.048625
vt 0.740514 0.164595
vt 0.268337 0.164595
vt 0.268337 0.089292
vt 0.740514 0.089292
vt 0.740514 0.230777
vt 0.268338 0.230777
vt 0.268337 0.015684
vt 0.740514 0.015684
vt 0.740514 0.289740
vt 0.268338 0.289740
vt 0.740514 0.341651
vt 0.268338 0.341651
vt 0.740514 0.388344
vt 0.268338 0.388344
vt 0.740514 0.529554
vt 0.268338 0.529554
vt 0.268338 0.456409
vt 0.740514 0.456409
vt 0.918759 0.589239
vt 0.090093 0.589239
vt 0.504426 0.988180
vt 0.444231 0.939463
vt 0.853834 0.657074
vt 0.155018 0.657074
vt 0.032249 0.529554
vt 0.976603 0.529554
vt 0.798352 0.714875
vt 0.210500 0.714875
vt 0.732247 0.782446
vt 0.276605 0.782446
vt 0.673223 0.840627
vt 0.335628 0.840627
vt 0.611840 0.898029
vt 0.397012 0.898029
vt 0.564621 0.939463
vt 0.504426 0.988180
vt 0.444231 0.939463
vt 0.564621 0.939463
vt 0.740514 0.164595
vt 0.268337 0.164595
vt 0.268337 0.089292
vt 0.740514 0.089292
vt 0.740514 0.388344
vt 0.268338 0.388344
vt 0.268338 0.341651
vt 0.740514 0.341651
vt 0.740514 0.289740
vt 0.268338 0.289740
vt 0.268338 0.230777
vt 0.740514 0.230777
vt 0.740514 0.529554
vt 0.268338 0.529554
vt 0.268338 0.456409
vt 0.740514 0.456409
vt 0.853834 0.657074
vt 0.155018 0.657074
vt 0.090093 0.589239
vt 0.918759 0.589239
vt 0.732247 0.782446
vt 0.276605 0.782446
vt 0.210500 0.714875
vt 0.798352 0.714875
vt 0.611840 0.898029
vt 0.397012 0.898029
vt 0.335628 0.840627
vt 0.673223 0.840627
vt 0.268337 0.015684
vt 0.740514 0.015684
vt 0.976603 0.529554
vt 0.032249 0.529554
vt 0.504426 0.988180
vt 0.444231 0.939463
vt 0.564621 0.939463
vt 0.268337 0.164595
vt 0.268337 0.089292
vt 0.740514 0.089292
vt 0.740514 0.164595
vt 0.268338 0.388344
vt 0.268338 0.341651
vt 0.740514 0.341651
vt 0.740514 0.388344
vt 0.268338 0.289740
vt 0.268338 0.230777
vt 0.740514 0.230777
vt 0.740514 0.289740
vt 0.268338 0.529554
vt 0.268338 0.456409
vt 0.740514 0.456409
vt 0.740514 0.529554
vt 0.155018 0.657074
vt 0.090093 0.589239
vt 0.918759 0.589239
vt 0.853834 0.657074
vt 0.276605 0.782446
vt 0.210500 0.714875
vt 0.798352 0.714875
vt 0.732247 0.782446
vt 0.397012 0.898029
vt 0.335628 0.840627
vt 0.673223 0.840627
vt 0.611840 0.898029
vt 0.268337 0.015684
vt 0.740514 0.015684
vt 0.976603 0.529554
vt 0.032249 0.529554
vn 0.000000 0.661574 -0.749880
vn 0.000000 0.661574 -0.749880
vn 0.000000 0.661574 -0.749880
vn 0.000000 0.500314 0.865844
vn 0.000000 0.500314 0.865844
vn 0.000000 0.500314 0.865844
vn 0.000000 0.500314 0.865844
vn 0.000000 0.904224 0.427058
vn 0.000000 0.904225 0.427057
vn 0.000000 0.904225 0.427057
vn 0.000000 0.904225 0.427057
vn 0.000000 0.735509 0.677515
vn 0.000000 0.735509 0.677515
vn 0.000000 0.735509 0.677515
vn 0.000000 0.735509 0.677515
vn 0.000000 0.990722 0.135904
vn 0.000000 0.990722 0.135904
vn 0.000000 0.990722 0.135904
vn 0.000000 0.990722 0.135904
vn 0.000000 0.992330 -0.123618
vn 0.000000 0.992330 -0.123618
vn 0.000000 0.992330 -0.123618
vn 0.000000 0.992330 -0.123618
vn 0.000000 0.931507 -0.363723
vn 0.000000 0.931507 -0.363723
vn 0.000000 0.931507 -0.363723
vn 0.000000 0.931507 -0.363723
vn 0.000000 0.811037 -0.584995
vn 0.000000 0.811037 -0.584995
vn 0.000000 0.811037 -0.584995
vn 0.000000 0.811037 -0.584995
vn 0.000000 0.959415 0.282000
vn 0.000000 0.959415 0.282000
vn 0.000000 0.959415 0.282000
vn 0.000000 0.959415 0.282000
vn 0.000000 0.827165 0.561959
vn 0.000000 0.827165 0.561959
vn 0.000000 0.827165 0.561959
vn 0.000000 0.827165 0.561959
vn 0.000000 0.627330 0.778754
vn 0.000000 0.627330 0.778754
vn 0.000000 0.627330 0.778754
vn 0.000000 0.627330 0.778754
vn 0.000000 0.360150 0.932895
vn 0.000000 0.360150 0.932895
vn 0.000000 0.360150 0.932895
vn 0.000000 0.360150 0.932895
vn -0.001096 0.999993 0.003729
vn -0.001096 0.999993 0.003729
vn -0.001096 0.999993 0.003729
vn 0.000000 0.999998 0.001915
vn 0.000000 0.999998 0.001915
vn 0.000000 0.999998 0.001915
vn 0.000000 0.999998 0.001914
vn 0.001096 0.999993 0.003729
vn 0.001096 0.999993 0.003729
vn 0.001096 0.999993 0.003729
vn 0.000000 0.969537 -0.244946
vn 0.000000 0.969537 -0.244946
vn 0.000000 0.969537 -0.244946
vn 0.000000 0.969537 -0.244947
vn 0.000000 0.877089 -0.480328
vn 0.000000 0.877089 -0.480328
vn 0.000000 0.877089 -0.480328
vn 0.000000 0.877089 -0.480328
vn 0.000000 0.741101 -0.671393
vn 0.000000 0.741101 -0.671394
vn 0.000000 0.741101 -0.671394
vn 0.000000 0.741101 -0.671394
vn 0.000000 -0.662723 0.748865
vn 0.000000 -0.662723 0.748865
vn 0.000000 -0.662723 0.748865
vn 0.000000 -0.500337 -0.865831
vn 0.000000 -0.500337 -0.865831
vn 0.000000 -0.500337 -0.865831
vn 0.000000 -0.500337 -0.865831
vn 0.000000 -0.904224 -0.427058
vn 0.000000 -0.904224 -0.427058
vn 0.000000 -0.904224 -0.427058
vn 0.000000 -0.904224 -0.427058
vn 0.000000 -0.735493 -0.677532
vn 0.000000 -0.735493 -0.677532
vn 0.000000 -0.735493 -0.677532
vn 0.000000 -0.735493 -0.677532
vn 0.000000 -0.990662 -0.136344
vn 0.000000 -0.990662 -0.136344
vn 0.000000 -0.990662 -0.136344
vn 0.000000 -0.990662 -0.136344
vn 0.000000 -0.992339 0.123543
vn 0.000000 -0.992339 0.123543
vn 0.000000 -0.992339 0.123543
vn 0.000000 -0.992339 0.123544
vn 0.000000 -0.931468 0.363823
vn 0.000000 -0.931468 0.363823
vn 0.000000 -0.931468 0.363823
vn 0.000000 -0.931468 0.363823
vn 0.000000 -0.811250 0.584700
vn 0.000000 -0.811250 0.584700
vn 0.000000 -0.811250 0.584700
vn 0.000000 -0.811250 0.584700
vn 0.000000 -0.959359 -0.282189
vn 0.000000 -0.959359 -0.282189
vn 0.000000 -0.959359 -0.282189
vn 0.000000 -0.959359 -0.282189
vn 0.000000 -0.827302 -0.561758
vn 0.000000 -0.827302 -0.561757
vn 0.000000 -0.827302 -0.561757
vn 0.000000 -0.827302 -0.561757
vn 0.000000 -0.627192 -0.778865
vn 0.000000 -0.627192 -0.778865
vn 0.000000 -0.627192 -0.778865
vn 0.000000 -0.627192 -0.778865
vn 0.000000 -0.362451 -0.932003
vn 0.000000 -0.362451 -0.932003
vn 0.000000 -0.362451 -0.932003
vn 0.000000 -0.362451 -0.932003
vn 0.000000 -0.999998 -0.002216
vn 0.000000 -0.999998 -0.002216
vn 0.000000 -0.999998 -0.002216
vn 0.000000 -0.999998 -0.002216
vn 0.000000 -0.999998 -0.002216
vn 0.000000 -0.999998 -0.002216
vn 0.000000 -0.999998 -0.002216
vn 0.000000 -0.999998 -0.002216
vn 0.000000 -0.999998 -0.002216
vn 0.000000 -0.999998 -0.002216
vn 0.000000 -0.969525 0.244991
vn 0.000000 -0.969525 0.244991
vn 0.000000 -0.969525 0.244991
vn 0.000000 -0.969525 0.244991
vn 0.000000 -0.877166 0.480187
vn 0.000000 -0.877166 0.480187
vn 0.000000 -0.877166 0.480187
vn 0.000000 -0.877166 0.480187
vn 0.000000 -0.741129 0.671363
vn 0.000000 -0.741129 0.671363
vn 0.000000 -0.741129 0.671363
vn 0.000000 -0.741129 0.671363
vn -0.888755 0.343271 0.303776
vn -0.891201 0.331364 0.309772
vn -0.891201 0.331364 0.309772
vn -0.893483 0.319396 0.315711
vn 0.893483 0.319396 0.315712
vn 0.891201 0.331364 0.309772
vn 0.891201 0.331364 0.309772
vn 0.888755 0.343271 0.303776
vn -1.000000 0.000000 0.000000
vn -1.000000 0.000000 0.000000
vn -1.000000 0.000000 0.000000
vn -1.000000 0.000000 0.000000
vn 1.000000 0.000000 0.000000
vn 1.000000 0.000000 0.000000
vn 1.000000 0.000000 0.000000
vn 1.000000 0.000000 0.000000
vn -1.000000 0.000001 0.000000
vn -1.000000 0.000000 0.000000
vn -1.000000 0.000000 0.000000
vn -1.000000 -0.000000 0.000000
vn 1.000000 0.000000 0.000000
vn 1.000000 -0.000000 0.000000
vn 1.000000 -0.000000 0.000000
vn 1.000000 -0.000000 0.000000
vn -1.000000 0.000000 0.000000
vn -1.000000 0.000000 0.000000
vn -1.000000 0.000000 0.000000
vn -1.000000 0.000000 0.000000
vn 1.000000 0.000000 0.000000
vn 1.000000 0.000000 0.000000
vn 1.000000 0.000000 0.000000
vn 1.000000 0.000000 0.000000
vn -1.000000 -0.000000 0.000000
vn -1.000000 -0.000000 0.000000
vn -1.000000 -0.000000 0.000000
vn -1.000000 0.000000 0.000000
vn 1.000000 0.000001 0.000000
vn 1.000000 0.000000 0.000000
vn 1.000000 0.000000 0.000000
vn 1.000000 -0.000000 0.000000
vn -0.893394 0.082942 0.441552
vn -0.888357 0.055795 0.455751
vn -0.888357 0.055795 0.455751
vn -0.882464 0.028594 0.469510
vn 0.893380 0.027313 0.448471
vn 0.888358 0.057100 0.455587
vn 0.888358 0.057100 0.455587
vn 0.882481 0.086832 0.462264
vn -0.893362 0.190017 0.407183
vn -0.888374 0.166809 0.427747
vn -0.888374 0.166809 0.427747
vn -0.882509 0.143435 0.447889
vn 0.882509 0.143435 0.447889
vn 0.888374 0.166809 0.427747
vn 0.888374 0.166809 0.427747
vn 0.893362 0.190017 0.407183
vn -0.882612 0.295701 0.365455
vn -0.888396 0.267794 0.372879
vn -0.888396 0.267794 0.372879
vn -0.893409 0.239655 0.379981
vn 0.893409 0.239655 0.379981
vn 0.888396 0.267794 0.372879
vn 0.888396 0.267794 0.372879
vn 0.882612 0.295701 0.365455
vn -1.000000 0.000000 0.000000
vn -1.000000 -0.000000 0.000000
vn -1.000000 -0.000000 0.000000
vn -1.000000 -0.000001 0.000000
vn 1.000000 0.000000 0.000000
vn 1.000000 -0.000000 0.000000
vn 1.000000 -0.000000 0.000000
vn 1.000000 -0.000000 0.000000
vn -1.000000 0.000000 0.000000
vn -1.000000 0.000000 0.000000
vn -1.000000 0.000000 0.000000
vn -1.000000 0.000000 0.000000
vn 1.000000 0.000000 0.000000
vn 1.000000 0.000000 0.000000
vn 1.000000 0.000000 0.000000
vn 1.000000 0.000000 0.000000
vn -1.000000 -0.000000 0.000000
vn -1.000000 -0.000000 0.000000
vn -1.000000 -0.000000 0.000000
vn -1.000000 0.000000 0.000000
vn 1.000000 -0.000001 0.000001
vn 1.000000 -0.000001 0.000001
vn 1.000000 -0.000001 0.000001
vn 1.000000 -0.000001 0.000001
vn -1.000000 0.000000 0.000000
vn -1.000000 -0.000000 0.000000
vn -1.000000 -0.000000 0.000000
vn -1.000000 -0.000000 0.000000
vn 0.000000 0.932002 -0.362455
vn 0.000000 0.932001 -0.362454
vn 0.000000 0.932001 -0.362454
vn 0.000000 0.932002 -0.362454
vn 1.000000 0.000001 -0.000000
vn 1.000000 0.000001 -0.000000
vn 1.000000 0.000001 -0.000000
vn 1.000000 0.000001 -0.000000
vn 0.000000 0.069439 -0.997586
vn -0.008340 0.035839 -0.999323
vn -0.008340 0.035839 -0.999323
vn -0.016670 0.002196 -0.999859
vn 0.887784 -0.001010 0.460259
vn 0.890704 0.013152 0.454394
vn 0.890704 0.013152 0.454394
vn 0.893407 0.027310 0.448418
vn -0.893407 0.027310 0.448418
vn -0.890704 0.013152 0.454394
vn -0.890704 0.013152 0.454394
vn -0.887784 -0.001010 0.460259
vn 0.000000 0.002196 -0.999998
vn 0.008359 0.035834 -0.999323
vn 0.008359 0.035834 -0.999323
vn 0.016708 0.069429 -0.997447
vn -0.893423 0.137006 0.427814
vn -0.887450 0.112304 0.447013
vn -0.887450 0.112304 0.447013
vn -0.880577 0.087488 0.465758
vn 0.893430 0.082928 0.441482
vn 0.887449 0.113792 0.446637
vn 0.887449 0.113792 0.446637
vn 0.880568 0.144540 0.451340
vn -0.881206 0.252185 0.399848
vn -0.887750 0.221202 0.403696
vn -0.887750 0.221202 0.403696
vn -0.893390 0.189994 0.407133
vn 0.893390 0.189994 0.407133
vn 0.887750 0.221202 0.403696
vn 0.887750 0.221202 0.403696
vn 0.881206 0.252185 0.399848
vn -0.893527 0.319334 0.315650
vn -0.887143 0.309192 0.342604
vn -0.887143 0.309192 0.342604
vn -0.879987 0.298780 0.369260
vn 0.893521 0.282441 0.349066
vn 0.887143 0.310259 0.341637
vn 0.887143 0.310259 0.341637
vn 0.879995 0.337807 0.333910
s off
g Deployment_Locator_Object
usemtl lambert2SG
f 36/71/1 38/73/2 37/72/3
s 2
f 39/77/4 42/76/5 40/74/6
f 40/74/6 42/76/5 41/75/7
s 3
f 43/81/8 46/80/9 44/78/10
f 44/78/10 46/80/9 45/79/11
s 4
f 47/85/12 50/84/13 48/82/14
f 48/82/14 50/84/13 49/83/15
s 5
f 52/89/16 54/88/17 51/86/18
f 51/86/18 54/88/17 53/87/19
s 6
f 56/93/20 58/92/21 55/90/22
f 55/90/22 58/92/21 57/91/23
s 7
f 60/97/24 62/96/25 59/94/26
f 59/94/26 62/96/25 61/95/27
s 8
f 64/101/28 66/100/29 63/98/30
f 63/98/30 66/100/29 65/99/31
s 9
f 54/88/32 43/81/33 53/87/34
f 53/87/34 43/81/33 44/78/35
s 10
f 46/80/36 47/85/37 45/79/38
f 45/79/38 47/85/37 48/82/39
s 11
f 50/84/40 39/77/41 49/83/42
f 49/83/42 39/77/41 40/74/43
s 12
f 42/76/44 68/103/45 41/75/46
f 41/75/46 68/103/45 67/102/47
s off
f 58/92/48 69/104/49 52/89/50
s 14
f 58/92/51 52/89/52 57/91/53
f 57/91/53 52/89/52 51/86/54
s off
f 57/91/55 51/86/56 70/105/57
s 16
f 62/96/58 56/93/59 61/95/60
f 61/95/60 56/93/59 55/90/61
s 17
f 66/100/62 60/97/63 65/99/64
f 65/99/64 60/97/63 59/94/65
s 18
f 38/73/66 64/101/67 37/72/68
f 37/72/68 64/101/67 63/98/69
s off
f 2/36/70 35/37/71 34/38/72
s 20
f 10/39/73 11/40/74 26/42/75
f 26/42/75 11/40/74 27/41/76
s 21
f 12/43/77 13/44/78 22/46/79
f 22/46/79 13/44/78 23/45/80
s 22
f 8/47/81 9/48/82 24/50/83
f 24/50/83 9/48/82 25/49/84
s 23
f 4/51/85 3/52/86 21/54/87
f 21/54/87 3/52/86 20/53/88
s 24
f 14/55/89 15/56/90 29/58/91
f 29/58/91 15/56/90 28/57/92
s 25
f 16/59/93 17/60/94 31/62/95
f 31/62/95 17/60/94 30/61/96
s 26
f 18/63/97 19/64/98 33/66/99
f 33/66/99 19/64/98 32/65/100
s 27
f 21/54/101 20/53/102 12/43/103
f 12/43/103 20/53/102 13/44/104
s 28
f 22/46/105 23/45/106 8/47/107
f 8/47/107 23/45/106 9/48/108
s 29
f 24/50/109 25/49/110 10/39/111
f 10/39/111 25/49/110 11/40/112
s 30
f 26/42/113 27/41/114 7/68/115
f 7/68/115 27/41/114 6/67/116
s off
f 29/58/117 4/51/118 1/69/119
s 32
f 29/58/120 28/57/121 4/51/122
f 4/51/122 28/57/121 3/52/123
s off
f 28/57/124 5/70/125 3/52/126
s 34
f 31/62/127 30/61/128 14/55/129
f 14/55/129 30/61/128 15/56/130
s 35
f 33/66/131 32/65/132 16/59/133
f 16/59/133 32/65/132 17/60/134
s 36
f 34/38/135 35/37/136 18/63/137
f 18/63/137 35/37/136 19/64/138
s 37
f 36/71/139 37/72/140 2/21/141
f 2/21/141 37/72/140 35/22/142
s 38
f 34/35/143 38/73/144 2/21/145
f 2/21/145 38/73/144 36/71/146
s 39
f 11/2/147 40/74/148 27/3/149
f 27/3/149 40/74/148 41/75/150
s 40
f 26/4/151 42/76/152 10/1/153
f 10/1/153 42/76/152 39/77/154
s 41
f 13/14/155 44/78/156 23/12/157
f 23/12/157 44/78/156 45/79/158
s 42
f 22/11/159 46/80/160 12/13/161
f 12/13/161 46/80/160 43/81/162
s 43
f 9/10/163 48/82/164 25/6/165
f 25/6/165 48/82/164 49/83/166
s 44
f 24/5/167 50/84/168 8/9/169
f 8/9/169 50/84/168 47/85/170
s 45
f 51/86/171 53/87/172 3/16/173
f 3/16/173 53/87/172 20/17/174
s 46
f 21/18/175 54/88/176 4/15/177
f 4/15/177 54/88/176 52/89/178
s 47
f 15/24/179 55/90/180 28/20/181
f 28/20/181 55/90/180 57/91/182
s 48
f 29/19/183 58/92/184 14/23/185
f 14/23/185 58/92/184 56/93/186
s 49
f 17/30/187 59/94/188 30/28/189
f 30/28/189 59/94/188 61/95/190
s 50
f 62/96/191 60/97/192 31/27/193
f 31/27/193 60/97/192 16/29/194
s 51
f 63/98/195 65/99/196 19/34/197
f 19/34/197 65/99/196 32/32/198
s 52
f 33/31/199 66/100/200 18/33/201
f 18/33/201 66/100/200 64/101/202
s 53
f 53/87/203 44/78/204 20/17/205
f 20/17/205 44/78/204 13/14/206
s 54
f 12/13/207 43/81/208 21/18/209
f 21/18/209 43/81/208 54/88/210
s 55
f 23/12/211 45/79/212 9/10/213
f 9/10/213 45/79/212 48/82/214
s 56
f 47/85/215 46/80/216 8/9/217
f 8/9/217 46/80/216 22/11/218
s 57
f 49/83/219 40/74/220 25/6/221
f 25/6/221 40/74/220 11/2/222
s 58
f 10/1/223 39/77/224 24/5/225
f 24/5/225 39/77/224 50/84/226
s 59
f 27/3/227 41/75/228 6/7/229
f 6/7/229 41/75/228 67/102/230
s 60
f 6/7/231 67/102/232 7/8/233
f 7/8/233 67/102/232 68/103/234
s 61
f 68/103/235 42/76/236 7/8/237
f 7/8/237 42/76/236 26/4/238
s 62
f 4/15/239 52/89/240 1/26/241
f 1/26/241 52/89/240 69/104/242
s 63
f 69/104/243 58/92/244 1/26/245
f 1/26/245 58/92/244 29/19/246
s 64
f 28/20/247 57/91/248 5/25/249
f 5/25/249 57/91/248 70/105/250
s 65
f 5/25/251 70/105/252 3/16/253
f 3/16/253 70/105/252 51/86/254
s 66
f 30/28/255 61/95/256 15/24/257
f 15/24/257 61/95/256 55/90/258
s 67
f 14/23/259 56/93/260 31/27/261
f 31/27/261 56/93/260 62/96/262
s 68
f 65/99/263 59/94/264 32/32/265
f 32/32/265 59/94/264 17/30/266
s 69
f 16/29/267 60/97/268 33/31/269
f 33/31/269 60/97/268 66/100/270
s 70
f 35/22/271 37/72/272 19/34/273
f 19/34/273 37/72/272 63/98/274
s 71
f 18/33/275 64/101/276 34/35/277
f 34/35/277 64/101/276 38/73/278
