# This file uses centimeters as units for non-parametric coordinates.

mtllib Blue_Tower_bottom.mtl
g Blue_Tower_bottom:default1
v -17.435844 -0.491306 6.709357
v -15.096740 -0.455561 5.962514
v -13.415370 -0.427977 5.347939
v -16.438364 -0.860149 9.283706
v -14.114420 -0.807674 7.642081
v -12.563450 -0.767617 6.662071
v -14.615123 -1.491631 11.201608
v -12.827954 -1.508478 9.443043
v -11.401279 -1.403282 7.957434
v -13.022058 -2.111841 12.415226
v -11.578269 -2.059367 10.525680
v -10.224135 -2.031783 8.893952
v -11.583654 -2.579609 13.440997
v -10.322547 -2.579612 11.342843
v -9.216780 -2.579654 9.522077
v -9.344480 -2.579682 14.791161
v -11.002226 -2.579749 6.710973
v -10.175643 -2.579929 6.082544
v -11.743186 -2.579749 5.851697
v -10.667000 -2.579929 5.511225
v -12.184934 -2.579749 5.254868
v -10.841307 -2.579929 5.073202
v -3.760630 -2.579749 8.964955
v -7.394691 -2.579755 15.920955
v -6.852245 -2.579831 7.955934
v -9.046172 -2.579863 6.976428
v -4.613685 -2.579715 11.336857
v -6.534997 -2.579735 14.707315
v -5.577201 -2.579724 13.145879
v -17.038555 -0.675727 7.996531
v -15.658043 -1.175890 10.292281
v -8.751905 -2.579688 8.546166
v -9.839435 -2.579715 7.773856
vt 0.234028 0.401193
vt 0.271629 0.427754
vt 0.224317 0.422019
vt 0.217889 0.442846
vt 0.255735 0.454930
vt 0.282940 0.464874
vt 0.296724 0.443611
vt 0.246653 0.384874
vt 0.263528 0.370161
vt 0.292444 0.398615
vt 0.315528 0.422652
vt 0.289304 0.350525
vt 0.312664 0.381098
vt 0.334574 0.407499
vt 0.312577 0.333928
vt 0.332982 0.367876
vt 0.350873 0.397336
vt 0.335358 0.452988
vt 0.321984 0.442820
vt 0.353633 0.438525
vt 0.358395 0.413126
vt 0.389131 0.422676
vt 0.327408 0.462232
vt 0.309996 0.456723
vt 0.324588 0.469319
vt 0.302848 0.466379
vt 0.439153 0.406350
vt 0.425351 0.367973
vt 0.348807 0.312082
vt 0.380354 0.293802
vt 0.409761 0.338703
vt 0.394264 0.313439
vt 0.340798 0.425622
vn 0.058655 0.991663 0.114732
vn 0.058655 0.991663 0.114732
vn 0.058655 0.991663 0.114732
vn 0.042768 0.982557 0.180975
vn 0.042768 0.982557 0.180975
vn 0.042768 0.982557 0.180975
vn 0.048769 0.982905 0.177538
vn 0.048769 0.982905 0.177538
vn 0.048769 0.982905 0.177538
vn 0.095287 0.977006 0.190737
vn 0.095287 0.977006 0.190737
vn 0.095287 0.977006 0.190737
vn 0.117080 0.972100 0.203256
vn 0.117080 0.972100 0.203256
vn 0.117080 0.972100 0.203256
vn 0.219318 0.951947 0.213766
vn 0.219318 0.951947 0.213766
vn 0.219318 0.951947 0.213766
vn 0.144440 0.952662 0.267530
vn 0.144440 0.952662 0.267530
vn 0.144440 0.952662 0.267530
vn 0.212287 0.939063 0.270361
vn 0.212287 0.939063 0.270361
vn 0.212287 0.939063 0.270361
vn 0.213403 0.954625 0.207729
vn 0.213403 0.954625 0.207729
vn 0.213403 0.954625 0.207729
vn 0.237909 0.948726 0.208132
vn 0.237909 0.948726 0.208132
vn 0.237909 0.948726 0.208132
vn 0.196112 0.946745 0.255371
vn 0.196112 0.946745 0.255371
vn 0.196112 0.946745 0.255371
vn 0.289201 0.922515 0.255596
vn 0.289201 0.922515 0.255596
vn 0.289201 0.922515 0.255596
vn 0.220004 0.966495 0.132233
vn 0.220004 0.966495 0.132233
vn 0.220004 0.966495 0.132233
vn 0.249735 0.943680 0.217027
vn 0.249735 0.943680 0.217027
vn 0.249735 0.943680 0.217027
vn 0.247069 0.943463 0.220986
vn 0.247069 0.943463 0.220986
vn 0.247069 0.943463 0.220986
vn 0.358187 0.907960 0.217509
vn 0.358187 0.907960 0.217509
vn 0.358187 0.907960 0.217509
vn 0.000082 1.000000 -0.000178
vn 0.000082 1.000000 -0.000178
vn 0.000082 1.000000 -0.000178
vn 0.000038 1.000000 -0.000118
vn 0.000038 1.000000 -0.000118
vn 0.000038 1.000000 -0.000118
vn 0.000132 1.000000 -0.000113
vn 0.000132 1.000000 -0.000113
vn 0.000132 1.000000 -0.000113
vn 0.000131 1.000000 -0.000113
vn 0.000131 1.000000 -0.000113
vn 0.000131 1.000000 -0.000113
vn 0.000149 1.000000 -0.000059
vn 0.000149 1.000000 -0.000059
vn 0.000149 1.000000 -0.000059
vn 0.000122 1.000000 -0.000090
vn 0.000122 1.000000 -0.000090
vn 0.000122 1.000000 -0.000090
vn 0.000007 1.000000 -0.000102
vn 0.000007 1.000000 -0.000102
vn 0.000007 1.000000 -0.000102
vn 0.000018 1.000000 -0.000012
vn 0.000018 1.000000 -0.000012
vn 0.000018 1.000000 -0.000012
vn 0.000031 1.000000 0.000012
vn 0.000031 1.000000 0.000012
vn 0.000031 1.000000 0.000012
vn 0.000025 1.000000 0.000013
vn 0.000025 1.000000 0.000013
vn 0.000025 1.000000 0.000013
vn 0.000018 1.000000 0.000015
vn 0.000018 1.000000 0.000015
vn 0.000018 1.000000 0.000015
vn 0.000017 1.000000 -0.000008
vn 0.000017 1.000000 -0.000008
vn 0.000017 1.000000 -0.000008
vn 0.000011 1.000000 0.000024
vn 0.000011 1.000000 0.000024
vn 0.000011 1.000000 0.000024
vn 0.000017 1.000000 0.000017
vn 0.000017 1.000000 0.000017
vn 0.000017 1.000000 0.000017
vn 0.059668 0.990549 0.123505
vn 0.059668 0.990549 0.123505
vn 0.059668 0.990549 0.123505
vn 0.124578 0.970297 0.207373
vn 0.124578 0.970297 0.207373
vn 0.124578 0.970297 0.207373
vn 0.000063 1.000000 -0.000124
vn 0.000063 1.000000 -0.000124
vn 0.000063 1.000000 -0.000124
vn 0.000075 1.000000 0.000001
vn 0.000075 1.000000 0.000001
vn 0.000075 1.000000 0.000001
vn 0.000074 1.000000 -0.000113
vn 0.000074 1.000000 -0.000113
vn 0.000074 1.000000 -0.000113
s off
g Blue_Tower_bottom:Release_Map_Collider Blue_Tower_bottom:polySurface9049 Blue_Tower_bottom:polySurface9050 Blue_Tower_bottom:polySurface9053 Blue_Tower_bottom:polySurface9059 Blue_Tower_bottom:polySurface9061 Blue_Tower_bottom:polySurface1
usemtl Blue_Tower_bottom:initialShadingGroup
f 4/1/1 5/2/2 30/3/3
f 1/4/4 5/2/5 2/5/6
f 2/5/7 5/2/8 3/6/9
f 3/6/10 5/2/11 6/7/12
f 31/8/13 7/9/14 5/2/15
f 5/2/16 7/9/17 8/10/18
f 5/2/19 8/10/20 6/7/21
f 6/7/22 8/10/23 9/11/24
f 7/9/25 10/12/26 8/10/27
f 8/10/28 10/12/29 11/13/30
f 8/10/31 11/13/32 9/11/33
f 9/11/34 11/13/35 12/14/36
f 13/15/37 14/16/38 10/12/39
f 10/12/40 14/16/41 11/13/42
f 11/13/43 14/16/44 12/14/45
f 12/14/46 14/16/47 15/17/48
f 18/18/49 17/19/50 26/20/51
f 26/20/52 32/21/53 25/22/54
f 18/18/55 20/23/56 17/19/57
f 17/19/58 20/23/59 19/24/60
f 20/23/61 22/25/62 19/24/63
f 19/24/64 22/25/65 21/26/66
f 15/17/67 23/27/68 25/22/69
f 14/16/70 27/28/71 15/17/72
f 16/29/73 24/30/74 14/16/75
f 13/15/76 16/29/77 14/16/78
f 29/31/79 27/28/80 14/16/81
f 23/27/82 15/17/83 27/28/84
f 24/30/85 28/32/86 14/16/87
f 28/32/88 29/31/89 14/16/90
f 30/3/91 5/2/92 1/4/93
f 4/1/94 31/8/95 5/2/96
f 26/20/97 33/33/98 32/21/99
f 25/22/100 32/21/101 15/17/102
f 26/20/103 17/19/104 33/33/105
