# This file uses centimeters as units for non-parametric coordinates.

mtllib Blue_Base.mtl
g Blue_Base:default1
v -17.810434 -0.425360 -5.575050
v -17.069681 -0.425360 -4.204438
v -16.094648 -0.425360 -0.745059
v -16.271034 -0.425360 2.326367
v -17.118256 -0.425360 5.105136
v -17.685165 -0.301461 5.690337
v -19.925058 -0.341014 6.390048
v -19.077118 -0.006684 -4.809047
v -18.377884 -0.006684 -3.288130
v -17.696617 -0.006684 -0.745059
v -17.756315 -0.006684 1.905378
v -18.752756 -0.006684 3.800056
v -19.972052 -0.021482 4.768146
v -21.475103 -0.024304 5.498719
v -21.575905 0.010738 -7.393613
v -20.935265 -0.000106 6.775703
v -22.798340 0.024822 6.758113
v -17.435844 -0.491306 6.709357
v -15.096740 -0.455561 5.962514
v -16.288860 -0.425360 -5.612323
v -16.074356 -0.425360 -4.476313
v -15.387959 -0.425360 -1.079053
v -14.645179 -0.425360 1.153529
v -14.254354 -0.425360 2.520109
v -13.415370 -0.427977 5.347939
v -21.417086 0.001483 -3.596885
v -21.055538 -0.006684 -2.762576
v -20.501640 -0.006684 -2.317439
v -19.585524 -0.006684 -0.090358
v -19.763590 -0.006684 1.293670
v -20.188410 -0.006684 2.156351
v -21.035339 -0.016540 3.076871
v -21.730541 -0.019382 4.023088
v -22.384613 -0.007034 4.143771
v -22.452765 -0.004552 5.014715
v -22.603546 0.014781 5.856718
v -22.418129 0.001582 -3.887177
v -22.742689 0.010738 -6.921703
v -21.134007 -0.018054 3.600814
v -19.899939 -0.006684 -1.321397
v -21.434504 0.006110 -5.197552
v -22.507507 0.006160 -5.462078
v -21.075680 -0.002232 -3.149947
v -21.970646 0.001537 -3.707969
v -20.123051 -0.048328 -6.392951
vt 0.213855 0.459334
vt 0.217889 0.442846
vt 0.223027 0.468802
vt 0.255735 0.454930
vt 0.282940 0.464874
vt 0.236735 0.513763
vt 0.211828 0.641607
vt 0.191333 0.629213
vt 0.223813 0.619431
vt 0.202646 0.604605
vt 0.239589 0.563458
vt 0.213669 0.563458
vt 0.212703 0.520574
vt 0.196581 0.489918
vt 0.176853 0.474255
vt 0.177613 0.448012
vt 0.152533 0.462434
vt 0.174410 0.654841
vt 0.161268 0.441772
vt 0.159322 0.596102
vt 0.168284 0.588899
vt 0.178020 0.572783
vt 0.183107 0.552865
vt 0.180226 0.530472
vt 0.173352 0.516513
vt 0.159649 0.501619
vt 0.158052 0.493142
vt 0.148400 0.486310
vt 0.137818 0.484357
vt 0.136715 0.470265
vt 0.158996 0.602369
vt 0.134275 0.456642
vt 0.131123 0.442057
vt 0.236447 0.642210
vt 0.239917 0.623830
vt 0.251023 0.568862
vt 0.263041 0.532739
vt 0.269365 0.510628
vt 0.153190 0.635499
vt 0.144516 0.611398
vt 0.153472 0.609601
vt 0.150902 0.671032
vt 0.132024 0.663396
vt 0.135829 0.639779
vt 0.137275 0.614298
vn 0.310109 0.945400 0.100256
vn 0.310109 0.945400 0.100256
vn 0.310109 0.945400 0.100256
vn -0.002300 0.999172 0.040618
vn -0.002300 0.999172 0.040618
vn -0.002300 0.999172 0.040618
vn -0.011956 0.999855 0.012166
vn -0.011956 0.999855 0.012166
vn -0.011956 0.999855 0.012166
vn 0.013228 0.999904 0.004033
vn 0.013228 0.999904 0.004033
vn 0.013228 0.999904 0.004033
vn 0.239688 0.962169 -0.129541
vn 0.239688 0.962169 -0.129541
vn 0.239688 0.962169 -0.129541
vn 0.233922 0.966289 -0.107545
vn 0.233922 0.966289 -0.107545
vn 0.233922 0.966289 -0.107545
vn 0.257530 0.963540 -0.072585
vn 0.257530 0.963540 -0.072585
vn 0.257530 0.963540 -0.072585
vn 0.252280 0.965291 -0.067584
vn 0.252280 0.965291 -0.067584
vn 0.252280 0.965291 -0.067584
vn 0.236402 0.963668 0.124328
vn 0.236402 0.963668 0.124328
vn 0.236402 0.963668 0.124328
vn 0.201383 0.977586 0.061400
vn 0.201383 0.977586 0.061400
vn 0.201383 0.977586 0.061400
vn 0.233098 0.972248 0.019967
vn 0.233098 0.972248 0.019967
vn 0.233098 0.972248 0.019967
vn 0.076397 0.990839 0.111367
vn 0.076397 0.990839 0.111367
vn 0.076397 0.990839 0.111367
vn 0.252853 0.967488 0.005695
vn 0.252853 0.967488 0.005695
vn 0.252853 0.967488 0.005695
vn 0.267247 0.963506 0.015347
vn 0.267247 0.963506 0.015347
vn 0.267247 0.963506 0.015347
vn 0.042642 0.980482 0.191930
vn 0.042642 0.980482 0.191930
vn 0.042642 0.980482 0.191930
vn 0.090505 0.977608 0.189977
vn 0.090505 0.977608 0.189977
vn 0.090505 0.977608 0.189977
vn 0.216245 0.961762 -0.168084
vn 0.216245 0.961762 -0.168084
vn 0.216245 0.961762 -0.168084
vn 0.271081 0.953370 -0.132664
vn 0.271081 0.953370 -0.132664
vn 0.271081 0.953370 -0.132664
vn 0.000000 1.000000 -0.000000
vn 0.000000 1.000000 -0.000000
vn 0.000000 1.000000 -0.000000
vn 0.000000 1.000000 -0.000000
vn 0.000000 1.000000 0.000000
vn 0.000000 1.000000 0.000000
vn 0.000000 1.000000 0.000000
vn 0.000000 1.000000 0.000000
vn 0.000000 1.000000 0.000000
vn 0.000000 1.000000 0.000000
vn 0.000000 1.000000 0.000000
vn 0.000000 1.000000 0.000000
vn -0.006278 0.999961 0.006186
vn -0.006278 0.999961 0.006186
vn -0.006278 0.999961 0.006186
vn -0.006278 0.999961 0.006186
vn 0.000000 1.000000 -0.000000
vn 0.000000 1.000000 -0.000000
vn 0.000000 1.000000 -0.000000
vn 0.000000 1.000000 -0.000000
vn -0.000187 0.999995 0.003260
vn -0.000187 0.999995 0.003260
vn -0.000187 0.999995 0.003260
vn -0.000187 0.999995 0.003260
vn 0.019789 0.999804 -0.000540
vn 0.019789 0.999804 -0.000540
vn 0.019789 0.999804 -0.000540
vn 0.019789 0.999804 -0.000540
vn 0.011280 0.999877 0.010905
vn 0.011280 0.999877 0.010905
vn 0.011280 0.999877 0.010905
vn 0.031239 0.999455 -0.010647
vn 0.031239 0.999455 -0.010647
vn 0.031239 0.999455 -0.010647
vn 0.031239 0.999455 -0.010647
vn 0.013608 0.999602 -0.024694
vn 0.013608 0.999602 -0.024694
vn 0.013608 0.999602 -0.024694
vn 0.000000 1.000000 -0.000000
vn 0.000000 1.000000 -0.000000
vn 0.000000 1.000000 -0.000000
vn 0.000000 1.000000 0.000000
vn 0.000000 1.000000 0.000000
vn 0.000000 1.000000 0.000000
vn 0.000000 1.000000 0.000000
vn 0.000000 1.000000 0.000000
vn 0.000000 1.000000 0.000000
vn 0.000000 1.000000 -0.000000
vn 0.000000 1.000000 -0.000000
vn 0.000000 1.000000 -0.000000
vn 0.000000 1.000000 0.000000
vn 0.000000 1.000000 0.000000
vn 0.000000 1.000000 0.000000
vn 0.000000 1.000000 0.000000
vn 0.000000 1.000000 0.000000
vn 0.000000 1.000000 0.000000
vn -0.000092 1.000000 0.000953
vn -0.000092 1.000000 0.000953
vn -0.000092 1.000000 0.000953
vn 0.000000 1.000000 0.000000
vn 0.000000 1.000000 0.000000
vn 0.000000 1.000000 0.000000
vn -0.000484 0.999996 0.002896
vn -0.000484 0.999996 0.002896
vn -0.000484 0.999996 0.002896
vn 0.000040 0.999996 0.002897
vn 0.000040 0.999996 0.002897
vn 0.000040 0.999996 0.002897
vn 0.000000 1.000000 0.000000
vn 0.000000 1.000000 0.000000
vn 0.000000 1.000000 0.000000
vn 0.025319 0.999522 -0.017741
vn 0.025319 0.999522 -0.017741
vn 0.025319 0.999522 -0.017741
vn 0.025319 0.999522 -0.017741
vn 0.000253 0.999997 0.002492
vn 0.000253 0.999997 0.002492
vn 0.000253 0.999997 0.002492
vn 0.000253 0.999997 0.002492
vn 0.005134 0.999982 0.003174
vn 0.005134 0.999982 0.003174
vn 0.005134 0.999982 0.003174
vn 0.005134 0.999982 0.003174
vn -0.000776 0.999996 0.002873
vn -0.000776 0.999996 0.002873
vn -0.000776 0.999996 0.002873
vn -0.000776 0.999996 0.002873
s off
g Blue_Base:Release_Map_Collider Blue_Base:polySurface9049 Blue_Base:polySurface9051 Blue_Base:polySurface9054 Blue_Base:polySurface1
usemtl Blue_Base:lambert19SG
f 6/1/1 18/2/2 5/3/3
f 18/2/4 19/4/5 5/3/6
f 19/4/7 25/5/8 4/6/9
f 19/4/10 4/6/11 5/3/12
f 1/7/13 8/8/14 2/9/15
f 2/9/16 8/8/17 9/10/18
f 2/9/19 9/10/20 3/11/21
f 3/11/22 9/10/23 10/12/24
f 11/13/25 12/14/26 4/6/27
f 4/6/28 12/14/29 5/3/30
f 5/3/31 12/14/32 6/1/33
f 6/1/34 12/14/35 13/15/36
f 10/12/37 11/13/38 3/11/39
f 3/11/40 11/13/41 4/6/42
f 6/1/43 13/15/44 7/16/45
f 7/16/46 13/15/47 14/17/48
f 1/7/49 45/18/50 8/8/51
f 14/17/52 16/19/53 7/16/54
f 8/8/55 27/20/56 28/21/57 9/10/58
f 9/10/59 40/22/60 29/23/61 10/12/62
f 11/13/63 30/24/64 31/25/65 12/14/66
f 12/14/67 31/25/68 32/26/69 13/15/70
f 10/12/71 29/23/72 30/24/73 11/13/74
f 13/15/75 39/27/76 33/28/77 14/17/78
f 34/29/79 35/30/80 14/17/81 33/28/82
f 8/8/83 43/31/84 27/20/85
f 36/32/86 17/33/87 14/17/88 35/30/89
f 14/17/90 17/33/91 16/19/92
f 2/9/93 20/34/94 1/7/95
f 2/9/96 21/35/97 20/34/98
f 3/11/99 22/36/100 21/35/101
f 4/6/102 23/37/103 3/11/104
f 3/11/105 23/37/106 22/36/107
f 4/6/108 24/38/109 23/37/110
f 25/5/111 24/38/112 4/6/113
f 3/11/114 21/35/115 2/9/116
f 41/39/117 44/40/118 26/41/119
f 13/15/120 32/26/121 39/27/122
f 9/10/123 28/21/124 40/22/125
f 15/42/126 41/39/127 8/8/128 45/18/129
f 15/42/130 38/43/131 42/44/132 41/39/133
f 41/39/134 26/41/135 43/31/136 8/8/137
f 41/39/138 42/44/139 37/45/140 44/40/141
