# This file uses centimeters as units for non-parametric coordinates.

mtllib Red_Base.mtl
g Red_Base:default1
v 18.278622 -0.425360 -6.064587
v 17.438374 -0.425360 -4.095196
v 16.709135 -0.425360 -0.758714
v 16.770691 -0.425360 2.326367
v 17.118256 -0.425360 5.105136
v 17.300547 -0.301461 5.781078
v 19.077118 -0.006684 -4.809047
v 18.377884 -0.006684 -3.288130
v 17.696617 -0.006684 -0.745059
v 17.756315 -0.006684 1.905378
v 18.752756 -0.006684 3.800056
v 19.972052 -0.021482 4.768146
v 21.475103 -0.024304 5.498719
v 21.324715 0.010738 -6.567501
v 17.018223 -0.491306 6.673031
v 15.096740 -0.455561 5.962514
v 16.461191 -0.425360 -6.404987
v 16.074356 -0.425360 -4.476313
v 15.387959 -0.425360 -1.079053
v 14.645179 -0.425360 1.153529
v 14.254354 -0.425360 2.520109
v 13.415370 -0.427977 5.347939
v 21.537966 0.001483 -3.648691
v 21.130369 -0.006684 -2.825895
v 20.501640 -0.006684 -2.317439
v 19.585524 -0.006684 -0.090358
v 19.763590 -0.006684 1.293670
v 20.188410 -0.006684 2.156351
v 20.865705 -0.016540 2.859528
v 21.653212 -0.019382 3.873889
v 22.384613 -0.007034 4.143771
v 22.452765 -0.004552 5.014715
v 22.603546 0.014781 5.856718
v 22.418129 0.001582 -3.887177
v 22.675978 0.010738 -7.073553
v 19.899939 -0.006684 -1.321397
v 21.434504 0.006110 -5.197552
v 22.507507 0.006160 -5.462078
v 21.208073 -0.002232 -3.299609
v 22.028208 0.001537 -3.805825
v 19.837143 -0.048328 -6.372431
v 18.624962 -0.286225 5.686335
v 19.258821 -0.172453 5.276739
v 20.021446 -0.042939 5.145795
v 20.471283 -0.043076 5.352727
v 20.776913 -0.023476 5.681518
v 21.062748 -0.012936 5.978330
v 21.543739 0.010613 6.622205
v 22.770332 0.023378 6.628512
v 20.970446 -0.018297 3.585120
vt 0.779923 0.457865
vt 0.775355 0.443434
vt 0.776973 0.468802
vt 0.744265 0.454930
vt 0.717061 0.464874
vt 0.771350 0.513763
vt 0.795748 0.649528
vt 0.808667 0.629213
vt 0.782153 0.617663
vt 0.797354 0.604605
vt 0.770354 0.563679
vt 0.786331 0.563458
vt 0.787297 0.520574
vt 0.803419 0.489918
vt 0.823148 0.474255
vt 0.847467 0.462434
vt 0.820965 0.654509
vt 0.841889 0.597126
vt 0.831716 0.588899
vt 0.821981 0.572783
vt 0.816893 0.552865
vt 0.819775 0.530472
vt 0.826648 0.516513
vt 0.837607 0.505136
vt 0.850349 0.488724
vt 0.862183 0.484357
vt 0.863285 0.470265
vt 0.843146 0.604791
vt 0.865725 0.456642
vt 0.766342 0.655036
vt 0.760083 0.623830
vt 0.748977 0.568862
vt 0.736959 0.532739
vt 0.730635 0.510628
vt 0.846810 0.635499
vt 0.856416 0.612981
vt 0.848484 0.610439
vt 0.845034 0.657665
vt 0.866897 0.665853
vt 0.864171 0.639779
vt 0.862725 0.614298
vt 0.801352 0.459398
vt 0.811607 0.466026
vt 0.823947 0.468144
vt 0.831225 0.464796
vt 0.836170 0.459476
vt 0.840795 0.454674
vt 0.848577 0.444256
vt 0.868424 0.444154
vt 0.839301 0.493396
vn -0.559909 0.828553 -0.000873
vn -0.559909 0.828553 -0.000873
vn -0.559909 0.828553 -0.000873
vn 0.002977 0.999104 0.042212
vn 0.002977 0.999104 0.042212
vn 0.002977 0.999104 0.042212
vn 0.011442 0.999843 0.013572
vn 0.011442 0.999843 0.013572
vn 0.011442 0.999843 0.013572
vn -0.014186 0.999898 0.001774
vn -0.014186 0.999898 0.001774
vn -0.014186 0.999898 0.001774
vn -0.296999 0.946433 -0.126716
vn -0.296999 0.946433 -0.126716
vn -0.296999 0.946433 -0.126716
vn -0.301378 0.943384 -0.138557
vn -0.301378 0.943384 -0.138557
vn -0.301378 0.943384 -0.138557
vn -0.350247 0.933524 -0.076552
vn -0.350247 0.933524 -0.076552
vn -0.350247 0.933524 -0.076552
vn -0.387029 0.916220 -0.103682
vn -0.387029 0.916220 -0.103682
vn -0.387029 0.916220 -0.103682
vn -0.322949 0.931052 0.169844
vn -0.322949 0.931052 0.169844
vn -0.322949 0.931052 0.169844
vn -0.226729 0.973545 0.028359
vn -0.226729 0.973545 0.028359
vn -0.226729 0.973545 0.028359
vn -0.313152 0.945537 -0.088863
vn -0.313152 0.945537 -0.088863
vn -0.313152 0.945537 -0.088863
vn -0.390435 0.920588 0.008794
vn -0.390435 0.920588 0.008794
vn -0.390435 0.920588 0.008794
vn -0.388155 0.921561 0.007745
vn -0.388155 0.921561 0.007745
vn -0.388155 0.921561 0.007745
vn -0.260682 0.953364 -0.152123
vn -0.260682 0.953364 -0.152123
vn -0.260682 0.953364 -0.152123
vn 0.000000 1.000000 -0.000000
vn 0.000000 1.000000 -0.000000
vn 0.000000 1.000000 -0.000000
vn 0.000000 1.000000 -0.000000
vn 0.000000 1.000000 0.000000
vn 0.000000 1.000000 0.000000
vn 0.000000 1.000000 0.000000
vn 0.000000 1.000000 0.000000
vn 0.000000 1.000000 0.000000
vn 0.000000 1.000000 0.000000
vn 0.000000 1.000000 0.000000
vn 0.000000 1.000000 0.000000
vn 0.007461 0.999952 0.006284
vn 0.007461 0.999952 0.006284
vn 0.007461 0.999952 0.006284
vn 0.007461 0.999952 0.006284
vn 0.000000 1.000000 0.000000
vn 0.000000 1.000000 0.000000
vn 0.000000 1.000000 0.000000
vn 0.000000 1.000000 0.000000
vn 0.000369 0.999995 0.003042
vn 0.000369 0.999995 0.003042
vn 0.000369 0.999995 0.003042
vn 0.000369 0.999995 0.003042
vn -0.018760 0.999824 0.000151
vn -0.018760 0.999824 0.000151
vn -0.018760 0.999824 0.000151
vn -0.018760 0.999824 0.000151
vn -0.007835 0.999936 0.008112
vn -0.007835 0.999936 0.008112
vn -0.007835 0.999936 0.008112
vn 0.000000 1.000000 0.000000
vn 0.000000 1.000000 0.000000
vn 0.000000 1.000000 0.000000
vn 0.000000 1.000000 0.000000
vn 0.000000 1.000000 0.000000
vn 0.000000 1.000000 0.000000
vn 0.000000 1.000000 0.000000
vn 0.000000 1.000000 0.000000
vn 0.000000 1.000000 0.000000
vn 0.000000 1.000000 -0.000000
vn 0.000000 1.000000 -0.000000
vn 0.000000 1.000000 -0.000000
vn 0.000000 1.000000 0.000000
vn 0.000000 1.000000 0.000000
vn 0.000000 1.000000 0.000000
vn 0.000000 1.000000 0.000000
vn 0.000000 1.000000 0.000000
vn 0.000000 1.000000 0.000000
vn 0.000073 1.000000 0.000947
vn 0.000073 1.000000 0.000947
vn 0.000073 1.000000 0.000947
vn 0.000000 1.000000 0.000000
vn 0.000000 1.000000 0.000000
vn 0.000000 1.000000 0.000000
vn 0.000830 0.999995 0.002932
vn 0.000830 0.999995 0.002932
vn 0.000830 0.999995 0.002932
vn -0.000274 0.999997 0.002461
vn -0.000274 0.999997 0.002461
vn -0.000274 0.999997 0.002461
vn 0.000000 1.000000 0.000000
vn 0.000000 1.000000 0.000000
vn 0.000000 1.000000 0.000000
vn -0.021314 0.999623 -0.017339
vn -0.021314 0.999623 -0.017339
vn -0.021314 0.999623 -0.017339
vn -0.021314 0.999623 -0.017339
vn 0.000967 0.999995 0.003107
vn 0.000967 0.999995 0.003107
vn 0.000967 0.999995 0.003107
vn 0.000967 0.999995 0.003107
vn -0.005104 0.999980 0.003786
vn -0.005104 0.999980 0.003786
vn -0.005104 0.999980 0.003786
vn -0.005104 0.999980 0.003786
vn 0.000639 0.999995 0.002976
vn 0.000639 0.999995 0.002976
vn 0.000639 0.999995 0.002976
vn 0.000639 0.999995 0.002976
vn -0.000897 0.989205 0.146537
vn -0.000897 0.989205 0.146537
vn -0.000897 0.989205 0.146537
vn -0.086363 0.986332 0.140321
vn -0.086363 0.986332 0.140321
vn -0.086363 0.986332 0.140321
vn -0.113315 0.984570 0.133352
vn -0.113315 0.984570 0.133352
vn -0.113315 0.984570 0.133352
vn -0.113315 0.984570 0.133352
vn -0.027426 0.997805 0.060280
vn -0.027426 0.997805 0.060280
vn -0.027426 0.997805 0.060280
vn -0.027426 0.997805 0.060280
vn -0.011584 0.998743 -0.048769
vn -0.011584 0.998743 -0.048769
vn -0.011584 0.998743 -0.048769
vn -0.006475 0.999551 -0.029259
vn -0.006475 0.999551 -0.029259
vn -0.006475 0.999551 -0.029259
vn -0.031069 0.999455 -0.011184
vn -0.031069 0.999455 -0.011184
vn -0.031069 0.999455 -0.011184
vn -0.031069 0.999455 -0.011184
vn -0.009652 0.999489 -0.030474
vn -0.009652 0.999489 -0.030474
vn -0.009652 0.999489 -0.030474
vn -0.009652 0.999489 -0.030474
s off
g Red_Base:polySurface9078 Red_Base:polySurface9081 Red_Base:polySurface9082 Red_Base:polySurface1
usemtl Red_Base:lambert3SG
f 6/1/1 5/3/2 15/2/3
f 15/2/4 5/3/5 16/4/6
f 16/4/7 4/6/8 22/5/9
f 16/4/10 5/3/11 4/6/12
f 1/7/13 2/9/14 7/8/15
f 2/9/16 8/10/17 7/8/18
f 2/9/19 3/11/20 8/10/21
f 3/11/22 9/12/23 8/10/24
f 10/13/25 4/6/26 11/14/27
f 4/6/28 5/3/29 11/14/30
f 5/3/31 6/1/32 11/14/33
f 9/12/34 3/11/35 10/13/36
f 3/11/37 4/6/38 10/13/39
f 1/7/40 7/8/41 41/17/42
f 7/8/43 8/10/44 25/19/45 24/18/46
f 8/10/47 9/12/48 26/21/49 36/20/50
f 10/13/51 11/14/52 28/23/53 27/22/54
f 11/14/55 12/15/56 29/24/57 28/23/58
f 9/12/59 10/13/60 27/22/61 26/21/62
f 12/15/63 13/16/64 30/25/65 50/50/66
f 31/26/67 30/25/68 13/16/69 32/27/70
f 7/8/71 24/18/72 39/28/73
f 2/9/74 1/7/75 17/30/76
f 2/9/77 17/30/78 18/31/79
f 3/11/80 18/31/81 19/32/82
f 4/6/83 3/11/84 20/33/85
f 3/11/86 19/32/87 20/33/88
f 4/6/89 20/33/90 21/34/91
f 22/5/92 4/6/93 21/34/94
f 3/11/95 2/9/96 18/31/97
f 37/35/98 23/37/99 40/36/100
f 12/15/101 50/50/102 29/24/103
f 8/10/104 36/20/105 25/19/106
f 14/38/107 41/17/108 7/8/109 37/35/110
f 14/38/111 37/35/112 38/40/113 35/39/114
f 37/35/115 7/8/116 39/28/117 23/37/118
f 37/35/119 40/36/120 34/41/121 38/40/122
f 11/14/123 6/1/124 42/42/125
f 11/14/126 42/42/127 43/43/128
f 12/15/129 11/14/130 43/43/131 44/44/132
f 45/45/133 13/16/134 12/15/135 44/44/136
f 13/16/137 45/45/138 46/46/139
f 13/16/140 46/46/141 47/47/142
f 33/29/143 32/27/144 13/16/145 49/49/146
f 13/16/147 47/47/148 48/48/149 49/49/150
