# This file uses centimeters as units for non-parametric coordinates.

mtllib Red_Tower_Top.mtl
g Red_Tower_Top:default1
v 13.247190 -0.425360 -7.773666
v 10.228991 -0.425360 -2.032160
v 10.229622 -0.425360 -5.194345
v 13.415370 -0.427977 5.347939
v 9.876655 -0.425360 2.034450
v 9.685958 -0.425360 0.485800
v 11.830812 -0.427977 3.419292
v 10.084724 -0.425360 -6.353514
v 10.360974 -0.425360 -7.512684
v 11.424611 -0.425360 -8.221714
v 16.074356 -0.425360 -4.476313
v 15.387959 -0.425360 -1.079053
v 14.645179 -0.425360 1.153529
v 14.254354 -0.425360 2.520109
v 16.461191 -0.425360 -6.404987
v 14.637595 -0.425360 -7.058866
v 13.108060 -0.427977 4.215580
v 12.014850 -0.425360 -7.407133
vt 0.665515 0.635448
vt 0.736836 0.665615
vt 0.714339 0.677181
vt 0.748977 0.568862
vt 0.665505 0.584283
vt 0.736959 0.532739
vt 0.656719 0.543543
vt 0.730635 0.510628
vt 0.659804 0.518486
vt 0.717061 0.464874
vt 0.712088 0.483195
vt 0.691422 0.496079
vt 0.663171 0.654203
vt 0.694400 0.671250
vt 0.684850 0.684430
vt 0.667640 0.672958
vt 0.760083 0.623830
vt 0.766342 0.655036
vn 0.000000 1.000000 -0.000000
vn 0.000000 1.000000 -0.000000
vn 0.000000 1.000000 -0.000000
vn 0.000000 1.000000 0.000000
vn 0.000000 1.000000 0.000000
vn 0.000000 1.000000 0.000000
vn 0.000000 1.000000 -0.000000
vn 0.000000 1.000000 -0.000000
vn 0.000000 1.000000 -0.000000
vn 0.000000 1.000000 0.000000
vn 0.000000 1.000000 0.000000
vn 0.000000 1.000000 0.000000
vn 0.000000 1.000000 0.000000
vn 0.000000 1.000000 0.000000
vn 0.000000 1.000000 0.000000
vn 0.000000 1.000000 0.000000
vn 0.000000 1.000000 0.000000
vn 0.000000 1.000000 0.000000
vn -0.001629 0.999999 0.000442
vn -0.001629 0.999999 0.000442
vn -0.001629 0.999999 0.000442
vn -0.000249 0.999998 0.002241
vn -0.000249 0.999998 0.002241
vn -0.000249 0.999998 0.002241
vn 0.000000 1.000000 0.000000
vn 0.000000 1.000000 0.000000
vn 0.000000 1.000000 0.000000
vn 0.000000 1.000000 0.000000
vn 0.000000 1.000000 0.000000
vn 0.000000 1.000000 0.000000
vn 0.000000 1.000000 0.000000
vn 0.000000 1.000000 0.000000
vn 0.000000 1.000000 -0.000000
vn 0.000000 1.000000 -0.000000
vn 0.000000 1.000000 -0.000000
vn 0.000000 1.000000 0.000000
vn 0.000000 1.000000 0.000000
vn 0.000000 1.000000 0.000000
vn 0.000000 1.000000 0.000000
vn -0.000677 0.999999 0.001086
vn -0.000677 0.999999 0.001086
vn -0.000677 0.999999 0.001086
s off
g Red_Tower_Top:polySurface9078 Red_Tower_Top:polySurface9082 Red_Tower_Top:polySurface9083 Red_Tower_Top:polySurface1
usemtl Red_Tower_Top:lambert3SG
f 3/1/1 16/2/2 1/3/3
f 12/4/4 3/1/5 2/5/6
f 13/6/7 12/4/8 2/5/9
f 2/5/10 6/7/11 13/6/12
f 13/6/13 6/7/14 14/8/15
f 14/8/16 6/7/17 5/9/18
f 4/10/19 14/8/20 17/11/21
f 14/8/22 5/9/23 7/12/24
f 8/13/25 3/1/26 1/3/27 18/14/28
f 8/13/29 18/14/30 10/15/31 9/16/32
f 12/4/33 11/17/34 3/1/35
f 11/17/36 15/18/37 16/2/38 3/1/39
f 17/11/40 14/8/41 7/12/42
