# This file uses centimeters as units for non-parametric coordinates.

mtllib Red_Tower_bottom.mtl
g Red_Tower_bottom:default1
v 17.018223 -0.491306 6.673031
v 15.096740 -0.455561 5.962514
v 13.415370 -0.427977 5.347939
v 16.438364 -0.860149 9.283706
v 14.114420 -0.807674 7.642081
v 12.563450 -0.767617 6.662071
v 14.615123 -1.491631 11.201608
v 12.827954 -1.508478 9.443043
v 11.401279 -1.403282 7.957434
v 13.022058 -2.111841 12.415226
v 11.578269 -2.059367 10.525680
v 10.224135 -2.031783 8.893952
v 11.583654 -2.579609 13.440997
v 10.322547 -2.579612 11.342843
v 9.034437 -2.579654 9.414320
v 9.344480 -2.579682 14.791161
v 10.559715 -2.579749 6.411979
v 9.673334 -2.579929 6.094503
v 11.108352 -2.579749 5.931867
v 10.200570 -2.579929 5.547104
v 11.529549 -2.579749 5.558728
v 10.266295 -2.579929 5.362187
v 3.760630 -2.579749 8.964955
v 7.394691 -2.579755 15.920955
v 6.852245 -2.579831 7.955934
v 8.854816 -2.579863 6.832911
v 4.613685 -2.579715 11.336857
v 6.534997 -2.579735 14.707315
v 5.577201 -2.579724 13.145879
v 17.038555 -0.675727 7.996531
v 15.658043 -1.175890 10.292281
v 8.235098 -2.579688 8.290007
v 9.166452 -2.579715 7.372266
v 8.113823 -2.579672 8.815830
v 8.430967 -2.579664 9.143377
vt 0.765972 0.401193
vt 0.728371 0.427754
vt 0.775684 0.422019
vt 0.775355 0.443434
vt 0.744265 0.454930
vt 0.717061 0.464874
vt 0.703276 0.443611
vt 0.753347 0.384874
vt 0.736472 0.370161
vt 0.707556 0.398615
vt 0.684473 0.422652
vt 0.710697 0.350525
vt 0.687336 0.381098
vt 0.665426 0.407499
vt 0.687423 0.333928
vt 0.667019 0.367876
vt 0.646177 0.399080
vt 0.656514 0.452794
vt 0.670856 0.447657
vt 0.643271 0.440847
vt 0.633244 0.417271
vt 0.610869 0.422676
vt 0.665045 0.461651
vt 0.679733 0.455426
vt 0.666109 0.464643
vt 0.686548 0.461463
vt 0.574649 0.367973
vt 0.651194 0.312082
vt 0.619646 0.293802
vt 0.590239 0.338703
vt 0.605736 0.313439
vt 0.648313 0.432120
vt 0.636413 0.403463
vt 0.631282 0.408763
vt 0.560847 0.406350
vn -0.058655 0.991663 0.114732
vn -0.058655 0.991663 0.114732
vn -0.058655 0.991663 0.114732
vn -0.047611 0.982841 0.178202
vn -0.047611 0.982841 0.178202
vn -0.047611 0.982841 0.178202
vn -0.048769 0.982905 0.177538
vn -0.048769 0.982905 0.177538
vn -0.048769 0.982905 0.177538
vn -0.095287 0.977006 0.190737
vn -0.095287 0.977006 0.190737
vn -0.095287 0.977006 0.190737
vn -0.117080 0.972100 0.203257
vn -0.117080 0.972100 0.203257
vn -0.117080 0.972100 0.203257
vn -0.219318 0.951948 0.213766
vn -0.219318 0.951948 0.213766
vn -0.219318 0.951948 0.213766
vn -0.144440 0.952662 0.267530
vn -0.144440 0.952662 0.267530
vn -0.144440 0.952662 0.267530
vn -0.212287 0.939063 0.270361
vn -0.212287 0.939063 0.270361
vn -0.212287 0.939063 0.270361
vn -0.213403 0.954625 0.207728
vn -0.213403 0.954625 0.207728
vn -0.213403 0.954625 0.207728
vn -0.237909 0.948726 0.208132
vn -0.237909 0.948726 0.208132
vn -0.237909 0.948726 0.208132
vn -0.196112 0.946745 0.255371
vn -0.196112 0.946745 0.255371
vn -0.196112 0.946745 0.255371
vn -0.289200 0.922515 0.255596
vn -0.289200 0.922515 0.255596
vn -0.289200 0.922515 0.255596
vn -0.220004 0.966495 0.132233
vn -0.220004 0.966495 0.132233
vn -0.220004 0.966495 0.132233
vn -0.249735 0.943680 0.217027
vn -0.249735 0.943680 0.217027
vn -0.249735 0.943680 0.217027
vn -0.247069 0.943463 0.220986
vn -0.247069 0.943463 0.220986
vn -0.247069 0.943463 0.220986
vn -0.327583 0.919143 0.218781
vn -0.327583 0.919143 0.218781
vn -0.327583 0.919143 0.218781
vn -0.000122 1.000000 -0.000225
vn -0.000122 1.000000 -0.000225
vn -0.000122 1.000000 -0.000225
vn -0.000067 1.000000 -0.000148
vn -0.000067 1.000000 -0.000148
vn -0.000067 1.000000 -0.000148
vn -0.000151 1.000000 -0.000146
vn -0.000151 1.000000 -0.000146
vn -0.000151 1.000000 -0.000146
vn -0.000134 1.000000 -0.000153
vn -0.000134 1.000000 -0.000153
vn -0.000134 1.000000 -0.000153
vn -0.000172 1.000000 -0.000060
vn -0.000172 1.000000 -0.000060
vn -0.000172 1.000000 -0.000060
vn -0.000121 1.000000 -0.000138
vn -0.000121 1.000000 -0.000138
vn -0.000121 1.000000 -0.000138
vn -0.000018 1.000000 -0.000010
vn -0.000018 1.000000 -0.000010
vn -0.000018 1.000000 -0.000010
vn -0.000031 1.000000 0.000012
vn -0.000031 1.000000 0.000012
vn -0.000031 1.000000 0.000012
vn -0.000025 1.000000 0.000013
vn -0.000025 1.000000 0.000013
vn -0.000025 1.000000 0.000013
vn -0.000018 1.000000 0.000015
vn -0.000018 1.000000 0.000015
vn -0.000018 1.000000 0.000015
vn -0.000011 1.000000 0.000024
vn -0.000011 1.000000 0.000024
vn -0.000011 1.000000 0.000024
vn -0.000017 1.000000 0.000017
vn -0.000017 1.000000 0.000017
vn -0.000017 1.000000 0.000017
vn -0.061411 0.988432 0.138675
vn -0.061411 0.988432 0.138675
vn -0.061411 0.988432 0.138675
vn -0.124578 0.970297 0.207373
vn -0.124578 0.970297 0.207373
vn -0.124578 0.970297 0.207373
vn -0.000154 1.000000 -0.000186
vn -0.000154 1.000000 -0.000186
vn -0.000154 1.000000 -0.000186
vn -0.000015 1.000000 -0.000003
vn -0.000015 1.000000 -0.000003
vn -0.000015 1.000000 -0.000003
vn -0.000118 1.000000 -0.000206
vn -0.000118 1.000000 -0.000206
vn -0.000118 1.000000 -0.000206
vn -0.000034 1.000000 -0.000135
vn -0.000034 1.000000 -0.000135
vn -0.000034 1.000000 -0.000135
vn -0.000034 1.000000 -0.000135
vn -0.000018 1.000000 -0.000008
vn -0.000018 1.000000 -0.000008
vn -0.000018 1.000000 -0.000008
vn -0.000018 1.000000 -0.000008
s off
g Red_Tower_bottom:polySurface9078 Red_Tower_bottom:polySurface9080 Red_Tower_bottom:polySurface9081 Red_Tower_bottom:polySurface1
usemtl Red_Tower_bottom:lambert3SG
f 4/1/1 30/3/2 5/2/3
f 1/4/4 2/5/5 5/2/6
f 2/5/7 3/6/8 5/2/9
f 3/6/10 6/7/11 5/2/12
f 31/8/13 5/2/14 7/9/15
f 5/2/16 8/10/17 7/9/18
f 5/2/19 6/7/20 8/10/21
f 6/7/22 9/11/23 8/10/24
f 7/9/25 8/10/26 10/12/27
f 8/10/28 11/13/29 10/12/30
f 8/10/31 9/11/32 11/13/33
f 9/11/34 12/14/35 11/13/36
f 13/15/37 10/12/38 14/16/39
f 10/12/40 11/13/41 14/16/42
f 11/13/43 12/14/44 14/16/45
f 12/14/46 15/17/47 14/16/48
f 18/18/49 26/20/50 17/19/51
f 26/20/52 25/22/53 32/21/54
f 18/18/55 17/19/56 20/23/57
f 17/19/58 19/24/59 20/23/60
f 20/23/61 19/24/62 22/25/63
f 19/24/64 21/26/65 22/25/66
f 14/16/67 15/17/68 27/27/69
f 16/28/70 14/16/71 24/29/72
f 13/15/73 14/16/74 16/28/75
f 29/30/76 14/16/77 27/27/78
f 24/29/79 14/16/80 28/31/81
f 28/31/82 14/16/83 29/30/84
f 30/3/85 1/4/86 5/2/87
f 4/1/88 5/2/89 31/8/90
f 26/20/91 32/21/92 33/32/93
f 27/27/94 15/17/95 35/33/96
f 26/20/97 33/32/98 17/19/99
f 25/22/100 23/35/101 34/34/102 32/21/103
f 23/35/104 27/27/105 35/33/106 34/34/107
