# This file uses centimeters as units for non-parametric coordinates.

mtllib Red_Bblue_Taken.mtl
g Red_Bblue_Taken:default1
v -11.833860 -2.579755 13.182161
v -10.469513 -2.579758 11.157805
v -9.295476 -2.579749 9.304643
v -9.631764 -2.579852 14.586180
v -6.031323 -2.579840 9.294467
v -3.742661 -2.579749 8.972349
v -8.273038 -2.579943 15.406875
v -6.247355 -2.579696 16.551138
v -3.819171 -2.579252 18.003164
v -1.908239 -2.579372 16.222477
v 0.000000 -2.579907 13.211632
v -0.885565 -2.579466 15.901918
v 0.000000 -2.579749 9.032263
v 0.000000 -2.579406 15.854163
v 5.719961 -2.579591 16.877016
v 1.982999 -2.579372 16.453960
v 0.921849 -2.579466 15.948287
v 3.562071 -2.579318 18.006947
v 2.982301 -2.579252 17.256985
v -4.770948 -2.579838 9.136646
v 3.479425 -2.579749 15.246489
v 4.613685 -2.579715 11.336857
v 5.577201 -2.579724 13.145880
v 3.760630 -2.579749 8.964955
v 6.534997 -2.579735 14.707315
v 7.394691 -2.579755 15.920955
v -7.734571 -2.579790 9.350060
v -5.000994 -2.579474 17.269552
v -2.855019 -2.579312 16.880192
vt 0.308529 0.338116
vt 0.330604 0.370870
vt 0.344158 0.315399
vt 0.349600 0.400854
vt 0.374855 0.400119
vt 0.402413 0.401019
vt 0.366143 0.302120
vt 0.398918 0.283606
vt 0.419084 0.271982
vt 0.453806 0.278282
vt 0.438206 0.260112
vt 0.469125 0.288924
vt 0.500000 0.337639
vt 0.485672 0.294110
vt 0.422806 0.403572
vt 0.439444 0.406231
vt 0.500000 0.405261
vt 0.500000 0.294883
vt 0.556297 0.304715
vt 0.532085 0.285178
vt 0.514916 0.293360
vt 0.592549 0.278333
vt 0.548254 0.272186
vt 0.557634 0.260051
vt 0.590239 0.338703
vt 0.574649 0.367973
vt 0.560847 0.406350
vt 0.619646 0.293802
vt 0.605736 0.313439
vn 0.000031 1.000000 0.000020
vn 0.000031 1.000000 0.000020
vn 0.000031 1.000000 0.000020
vn 0.000026 1.000000 0.000021
vn 0.000026 1.000000 0.000021
vn 0.000026 1.000000 0.000021
vn 0.000030 1.000000 0.000023
vn 0.000030 1.000000 0.000023
vn 0.000030 1.000000 0.000023
vn 0.000046 1.000000 0.000034
vn 0.000046 1.000000 0.000034
vn 0.000046 1.000000 0.000034
vn -0.000109 1.000000 -0.000023
vn -0.000109 1.000000 -0.000023
vn -0.000109 1.000000 -0.000023
vn -0.000164 1.000000 -0.000025
vn -0.000164 1.000000 -0.000025
vn -0.000164 1.000000 -0.000025
vn -0.000013 1.000000 -0.000064
vn -0.000013 1.000000 -0.000064
vn -0.000013 1.000000 -0.000064
vn 0.000045 1.000000 -0.000149
vn 0.000045 1.000000 -0.000149
vn 0.000045 1.000000 -0.000149
vn 0.000001 1.000000 0.000016
vn 0.000001 1.000000 0.000016
vn 0.000001 1.000000 0.000016
vn -0.000001 1.000000 0.000038
vn -0.000001 1.000000 0.000038
vn -0.000001 1.000000 0.000038
vn -0.000078 1.000000 -0.000190
vn -0.000078 1.000000 -0.000190
vn -0.000078 1.000000 -0.000190
vn 0.000080 1.000000 -0.000214
vn 0.000080 1.000000 -0.000214
vn 0.000080 1.000000 -0.000214
vn -0.000014 1.000000 -0.000156
vn -0.000014 1.000000 -0.000156
vn -0.000014 1.000000 -0.000156
vn 0.000088 1.000000 -0.000259
vn 0.000088 1.000000 -0.000259
vn 0.000088 1.000000 -0.000259
vn 0.000123 1.000000 -0.000007
vn 0.000123 1.000000 -0.000007
vn 0.000123 1.000000 -0.000007
vn 0.000085 1.000000 -0.000190
vn 0.000085 1.000000 -0.000190
vn 0.000085 1.000000 -0.000190
vn -0.000033 1.000000 0.000022
vn -0.000033 1.000000 0.000022
vn -0.000033 1.000000 0.000022
vn -0.000041 1.000000 0.000001
vn -0.000041 1.000000 0.000001
vn -0.000041 1.000000 0.000001
vn 0.000001 1.000000 0.000038
vn 0.000001 1.000000 0.000038
vn 0.000001 1.000000 0.000038
vn -0.000071 1.000000 0.000100
vn -0.000071 1.000000 0.000100
vn -0.000071 1.000000 0.000100
vn 0.000076 1.000000 -0.000038
vn 0.000076 1.000000 -0.000038
vn 0.000076 1.000000 -0.000038
vn -0.000017 1.000000 -0.000073
vn -0.000017 1.000000 -0.000073
vn -0.000017 1.000000 -0.000073
vn 0.000082 1.000000 -0.000210
vn 0.000082 1.000000 -0.000210
vn 0.000082 1.000000 -0.000210
vn -0.000033 1.000000 -0.000021
vn -0.000033 1.000000 -0.000021
vn -0.000033 1.000000 -0.000021
vn -0.000003 1.000000 0.000009
vn -0.000003 1.000000 0.000009
vn -0.000003 1.000000 0.000009
vn 0.000026 1.000000 0.000021
vn 0.000026 1.000000 0.000021
vn 0.000026 1.000000 0.000021
vn -0.000173 1.000000 -0.000024
vn -0.000173 1.000000 -0.000024
vn -0.000173 1.000000 -0.000024
vn 0.000069 1.000000 -0.000109
vn 0.000069 1.000000 -0.000109
vn 0.000069 1.000000 -0.000109
vn 0.000069 1.000000 -0.000109
s off
g Red_Bblue_Taken:polySurface9078 Red_Bblue_Taken:polySurface9079 Red_Bblue_Taken:polySurface9080 Red_Bblue_Taken:polySurface1
usemtl Red_Bblue_Taken:lambert3SG
f 1/1/1 4/3/2 2/2/3
f 2/2/4 4/3/5 3/4/6
f 27/5/7 4/3/8 5/6/9
f 4/3/10 7/7/11 5/6/12
f 5/6/13 7/7/14 8/8/15
f 8/8/16 28/9/17 5/6/18
f 5/6/19 9/11/20 29/10/21
f 10/12/22 12/14/23 11/13/24
f 20/15/25 5/6/26 11/13/27
f 11/13/28 13/17/29 6/16/30
f 11/13/31 12/14/32 14/18/33
f 21/19/34 11/13/35 16/20/36
f 16/20/37 11/13/38 17/21/39
f 15/22/40 16/20/41 19/23/42
f 15/22/43 19/23/44 18/24/45
f 11/13/46 14/18/47 17/21/48
f 23/25/49 22/26/50 11/13/51
f 22/26/52 24/27/53 11/13/54
f 11/13/55 24/27/56 13/17/57
f 6/16/58 20/15/59 11/13/60
f 26/28/61 25/29/62 15/22/63
f 15/22/64 25/29/65 21/19/66
f 15/22/67 21/19/68 16/20/69
f 11/13/70 21/19/71 23/25/72
f 21/19/73 25/29/74 23/25/75
f 3/4/76 4/3/77 27/5/78
f 28/9/79 9/11/80 5/6/81
f 11/13/82 5/6/83 29/10/84 10/12/85
