# This file uses centimeters as units for non-parametric coordinates.

mtllib Red_Tblue_Taken.mtl
g Red_Tblue_Taken:default1
v 0.000000 -0.454172 -5.590065
v 0.000000 -0.454172 0.247151
v 0.000000 -0.455481 4.910414
v 0.000000 -0.454172 -9.635095
v -12.182116 -0.425360 -10.196744
v -13.504768 -0.425360 -7.891356
v -10.229622 -0.425360 -5.194346
v -10.228992 -0.425360 -2.032160
v -9.685959 -0.425360 0.485800
v -9.876656 -0.425360 2.034450
v -11.286438 -0.427977 3.897279
v -11.424612 -0.425360 -8.221715
v -10.360974 -0.425360 -7.512683
v -10.084723 -0.425360 -6.353514
v -9.181262 -0.476823 -9.699952
v -6.873198 -0.454172 -4.844038
v -7.162446 -0.454172 -2.451780
v -6.829283 -0.454172 -0.508229
v -5.577293 -0.454172 2.221620
v -7.546934 -0.454172 -10.098065
v -6.286055 -0.454172 -7.385518
v -6.585875 -0.454172 -8.701321
v -4.572744 -0.455481 3.419341
v -3.494433 -0.456789 3.808846
v -2.929858 -0.454172 -2.672228
v -2.886485 -0.456789 4.893253
v -3.799489 -0.454172 -11.653044
v -2.301301 -0.454172 -10.216013
v -10.981141 -0.445658 -9.702552
v -5.595634 -0.454172 -10.825460
v -7.598943 -0.441729 3.034336
v -9.296849 -0.434461 3.265909
v -2.964899 -0.456789 4.483783
v 10.229622 -0.425360 -5.194346
v 10.228992 -0.425360 -2.032160
v 9.685959 -0.425360 0.485800
v 9.876656 -0.425360 2.034450
v 11.830812 -0.427977 3.419292
v 11.424612 -0.425360 -8.221715
v 10.360974 -0.425360 -7.512683
v 10.084723 -0.425360 -6.353514
v 9.181262 -0.476823 -9.472099
v 6.873198 -0.454172 -4.844038
v 7.162446 -0.454172 -2.451780
v 6.829283 -0.454172 -0.508229
v 5.577293 -0.454172 2.221620
v 7.398615 -0.454172 -9.974647
v 6.286055 -0.454172 -7.385518
v 6.585875 -0.454172 -8.701321
v 4.472652 -0.455481 2.902199
v 3.427705 -0.456789 3.575298
v 2.929858 -0.454172 -2.672228
v 2.886485 -0.456789 4.893253
v 3.799489 -0.454172 -11.578789
v 2.301301 -0.454172 -10.216013
v 10.285790 -0.445658 -8.960228
v 5.595634 -0.454172 -10.699624
v 7.632307 -0.441729 2.750742
v 9.697217 -0.434461 2.982315
v 2.948217 -0.456789 4.450419
vt 0.334495 0.584283
vt 0.334485 0.635448
vt 0.384112 0.591073
vt 0.388792 0.629780
vt 0.343282 0.543543
vt 0.389502 0.559626
vt 0.409760 0.515457
vt 0.340196 0.518486
vt 0.336830 0.654203
vt 0.398292 0.670901
vt 0.393441 0.692190
vt 0.332360 0.672958
vt 0.377891 0.714790
vt 0.315150 0.684430
vt 0.377049 0.502308
vt 0.426013 0.496078
vt 0.452595 0.594640
vt 0.500000 0.641850
vt 0.500000 0.547404
vt 0.452028 0.478856
vt 0.500000 0.471953
vt 0.453297 0.472230
vt 0.500000 0.707299
vt 0.409463 0.726559
vt 0.462765 0.716698
vt 0.443460 0.489776
vt 0.322326 0.708390
vt 0.351448 0.708348
vt 0.281493 0.679085
vt 0.302894 0.716386
vt 0.438524 0.739949
vt 0.349577 0.498561
vt 0.317386 0.488345
vt 0.665505 0.584283
vt 0.615888 0.591073
vt 0.665515 0.635448
vt 0.611208 0.629780
vt 0.656719 0.543543
vt 0.610498 0.559626
vt 0.590241 0.515457
vt 0.659804 0.518486
vt 0.663171 0.654203
vt 0.601708 0.670901
vt 0.606559 0.692190
vt 0.619710 0.712793
vt 0.667640 0.672958
vt 0.623491 0.506896
vt 0.572367 0.504446
vt 0.547405 0.594640
vt 0.547702 0.479395
vt 0.546703 0.472230
vt 0.590537 0.724523
vt 0.537235 0.716698
vt 0.555460 0.493555
vt 0.648553 0.704661
vt 0.666424 0.696379
vt 0.684850 0.684430
vt 0.561476 0.738748
vt 0.656901 0.503149
vt 0.691422 0.496079
vn 0.009395 0.999956 -0.000002
vn 0.009395 0.999956 -0.000002
vn 0.009395 0.999956 -0.000002
vn 0.008477 0.999964 0.001025
vn 0.008477 0.999964 0.001025
vn 0.008477 0.999964 0.001025
vn 0.009381 0.999954 -0.002023
vn 0.009381 0.999954 -0.002023
vn 0.009381 0.999954 -0.002023
vn 0.009180 0.999957 -0.001574
vn 0.009180 0.999957 -0.001574
vn 0.009180 0.999957 -0.001574
vn 0.006838 0.999972 -0.003136
vn 0.006838 0.999972 -0.003136
vn 0.006838 0.999972 -0.003136
vn 0.010537 0.999944 0.001297
vn 0.010537 0.999944 0.001297
vn 0.010537 0.999944 0.001297
vn 0.008473 0.999964 0.001059
vn 0.008473 0.999964 0.001059
vn 0.008473 0.999964 0.001059
vn 0.008092 0.999966 0.001870
vn 0.008092 0.999966 0.001870
vn 0.008092 0.999966 0.001870
vn 0.006273 0.999971 -0.004316
vn 0.006273 0.999971 -0.004316
vn 0.006273 0.999971 -0.004316
vn 0.004305 0.999970 -0.006458
vn 0.004305 0.999970 -0.006458
vn 0.004305 0.999970 -0.006458
vn 0.007123 0.999973 -0.001698
vn 0.007123 0.999973 -0.001698
vn 0.007123 0.999973 -0.001698
vn 0.007121 0.999973 -0.001623
vn 0.007121 0.999973 -0.001623
vn 0.007121 0.999973 -0.001623
vn 0.003466 0.999958 0.008475
vn 0.003466 0.999958 0.008475
vn 0.003466 0.999958 0.008475
vn 0.006906 0.999965 -0.004699
vn 0.006906 0.999965 -0.004699
vn 0.006906 0.999965 -0.004699
vn 0.000000 1.000000 -0.000000
vn 0.000000 1.000000 -0.000000
vn 0.000000 1.000000 -0.000000
vn 0.000000 1.000000 0.000000
vn 0.000000 1.000000 0.000000
vn 0.000000 1.000000 0.000000
vn 0.000000 1.000000 0.000000
vn 0.000000 1.000000 0.000000
vn 0.000000 1.000000 0.000000
vn 0.000000 1.000000 0.000000
vn 0.000000 1.000000 0.000000
vn 0.000000 1.000000 0.000000
vn 0.000000 1.000000 0.000000
vn 0.000000 1.000000 0.000000
vn 0.000000 1.000000 0.000000
vn -0.000454 1.000000 0.000087
vn -0.000454 1.000000 0.000087
vn -0.000454 1.000000 0.000087
vn 0.000000 1.000000 -0.000000
vn 0.000000 1.000000 -0.000000
vn 0.000000 1.000000 -0.000000
vn 0.000000 1.000000 0.000000
vn 0.000000 1.000000 0.000000
vn 0.000000 1.000000 0.000000
vn 0.000000 1.000000 0.000000
vn 0.000000 1.000000 0.000000
vn 0.000000 1.000000 0.000000
vn 0.000000 1.000000 0.000000
vn 0.000000 1.000000 0.000000
vn 0.000000 1.000000 0.000000
vn 0.000000 1.000000 0.000000
vn 0.000000 1.000000 0.000000
vn 0.000000 1.000000 0.000000
vn 0.000700 0.999999 0.001421
vn 0.000700 0.999999 0.001421
vn 0.000700 0.999999 0.001421
vn 0.000298 1.000000 0.000843
vn 0.000298 1.000000 0.000843
vn 0.000298 1.000000 0.000843
vn 0.017324 0.999814 -0.008516
vn 0.017324 0.999814 -0.008516
vn 0.017324 0.999814 -0.008516
vn -0.035282 0.995478 -0.088199
vn -0.035282 0.995478 -0.088199
vn -0.035282 0.995478 -0.088199
vn 0.006307 0.999977 -0.002419
vn 0.006307 0.999977 -0.002419
vn 0.006307 0.999977 -0.002419
vn 0.006307 0.999977 -0.002419
vn 0.000000 1.000000 -0.000000
vn 0.000000 1.000000 -0.000000
vn 0.000000 1.000000 -0.000000
vn 0.000000 1.000000 -0.000000
vn 0.004969 0.999975 0.005051
vn 0.004969 0.999975 0.005051
vn 0.004969 0.999975 0.005051
vn 0.004876 0.999975 0.005095
vn 0.004876 0.999975 0.005095
vn 0.004876 0.999975 0.005095
vn -0.000463 1.000000 0.000281
vn -0.000463 1.000000 0.000281
vn -0.000463 1.000000 0.000281
vn -0.000497 1.000000 0.000390
vn -0.000497 1.000000 0.000390
vn -0.000497 1.000000 0.000390
vn -0.009395 0.999956 -0.000002
vn -0.009395 0.999956 -0.000002
vn -0.009395 0.999956 -0.000002
vn -0.008477 0.999964 0.001025
vn -0.008477 0.999964 0.001025
vn -0.008477 0.999964 0.001025
vn -0.009381 0.999954 -0.002023
vn -0.009381 0.999954 -0.002023
vn -0.009381 0.999954 -0.002023
vn -0.009180 0.999957 -0.001574
vn -0.009180 0.999957 -0.001574
vn -0.009180 0.999957 -0.001574
vn -0.006838 0.999972 -0.003136
vn -0.006838 0.999972 -0.003136
vn -0.006838 0.999972 -0.003136
vn -0.010537 0.999944 0.001297
vn -0.010537 0.999944 0.001297
vn -0.010537 0.999944 0.001297
vn -0.008473 0.999964 0.001059
vn -0.008473 0.999964 0.001059
vn -0.008473 0.999964 0.001059
vn -0.008092 0.999966 0.001870
vn -0.008092 0.999966 0.001870
vn -0.008092 0.999966 0.001870
vn -0.006355 0.999972 -0.004056
vn -0.006355 0.999972 -0.004056
vn -0.006355 0.999972 -0.004056
vn -0.007123 0.999973 -0.001698
vn -0.007123 0.999973 -0.001698
vn -0.007123 0.999973 -0.001698
vn -0.007121 0.999973 -0.001623
vn -0.007121 0.999973 -0.001623
vn -0.007121 0.999973 -0.001623
vn -0.004619 0.999974 -0.005574
vn -0.004619 0.999974 -0.005574
vn -0.004619 0.999974 -0.005574
vn 0.000000 1.000000 -0.000000
vn 0.000000 1.000000 -0.000000
vn 0.000000 1.000000 -0.000000
vn 0.000000 1.000000 0.000000
vn 0.000000 1.000000 0.000000
vn 0.000000 1.000000 0.000000
vn 0.000000 1.000000 0.000000
vn 0.000000 1.000000 0.000000
vn 0.000000 1.000000 0.000000
vn 0.000000 1.000000 0.000000
vn 0.000000 1.000000 0.000000
vn 0.000000 1.000000 0.000000
vn 0.000000 1.000000 0.000000
vn 0.000000 1.000000 0.000000
vn 0.000000 1.000000 0.000000
vn 0.000454 1.000000 0.000063
vn 0.000454 1.000000 0.000063
vn 0.000454 1.000000 0.000063
vn 0.000000 1.000000 0.000000
vn 0.000000 1.000000 0.000000
vn 0.000000 1.000000 0.000000
vn 0.000000 1.000000 0.000000
vn 0.000000 1.000000 0.000000
vn 0.000000 1.000000 0.000000
vn 0.000000 1.000000 0.000000
vn 0.000000 1.000000 0.000000
vn 0.000000 1.000000 0.000000
vn 0.000000 1.000000 0.000000
vn 0.000000 1.000000 0.000000
vn 0.000000 1.000000 0.000000
vn 0.000000 1.000000 0.000000
vn 0.000000 1.000000 0.000000
vn 0.000000 1.000000 0.000000
vn -0.000448 0.999999 0.001248
vn -0.000448 0.999999 0.001248
vn -0.000448 0.999999 0.001248
vn -0.000432 0.999999 0.001221
vn -0.000432 0.999999 0.001221
vn -0.000432 0.999999 0.001221
vn 0.003489 0.999644 -0.026443
vn 0.003489 0.999644 -0.026443
vn 0.003489 0.999644 -0.026443
vn 0.003489 0.999644 -0.026443
vn 0.003489 0.999644 -0.026443
vn 0.000000 1.000000 0.000000
vn 0.000000 1.000000 0.000000
vn 0.000000 1.000000 0.000000
vn 0.000000 1.000000 0.000000
vn -0.004501 0.999952 0.008749
vn -0.004501 0.999952 0.008749
vn -0.004501 0.999952 0.008749
vn -0.004818 0.999951 0.008689
vn -0.004818 0.999951 0.008689
vn -0.004818 0.999951 0.008689
vn 0.000491 1.000000 0.000281
vn 0.000491 1.000000 0.000281
vn 0.000491 1.000000 0.000281
vn 0.000485 1.000000 0.000266
vn 0.000485 1.000000 0.000266
vn 0.000485 1.000000 0.000266
vn -0.006608 0.999976 0.002148
vn -0.006608 0.999976 0.002148
vn -0.006608 0.999976 0.002148
s off
g Red_Tblue_Taken:polySurface9078 Red_Tblue_Taken:polySurface9083 Red_Tblue_Taken:polySurface9084 Red_Tblue_Taken:polySurface1
usemtl Red_Tblue_Taken:lambert3SG
f 8/1/1 17/3/2 7/2/3
f 7/2/4 17/3/5 16/4/6
f 9/5/7 18/6/8 8/1/9
f 8/1/10 18/6/11 17/3/12
f 19/7/13 18/6/14 10/8/15
f 10/8/16 18/6/17 9/5/18
f 7/2/19 16/4/20 14/9/21
f 14/9/22 16/4/23 21/10/24
f 22/11/25 20/13/26 13/12/27
f 13/12/28 20/13/29 12/14/30
f 14/9/31 21/10/32 13/12/33
f 13/12/34 21/10/35 22/11/36
f 31/15/37 23/16/38 10/8/39
f 10/8/40 23/16/41 19/7/42
f 17/3/43 25/17/44 16/4/45
f 16/4/46 25/17/47 1/18/48
f 2/19/49 25/17/50 18/6/51
f 18/6/52 25/17/53 17/3/54
f 19/7/55 2/19/56 18/6/57
f 33/20/58 26/22/59 3/21/60
f 16/4/61 1/18/62 21/10/63
f 21/10/64 1/18/65 4/23/66
f 22/11/67 30/24/68 20/13/69
f 4/23/70 28/25/71 21/10/72
f 21/10/73 28/25/74 22/11/75
f 24/26/76 2/19/77 23/16/78
f 23/16/79 2/19/80 19/7/81
f 12/14/82 15/28/83 29/27/84
f 20/13/85 15/28/86 12/14/87
f 12/14/88 29/27/89 5/30/90 6/29/91
f 22/11/92 28/25/93 27/31/94 30/24/95
f 32/32/96 31/15/97 10/8/98
f 11/33/99 32/32/100 10/8/101
f 3/21/102 2/19/103 24/26/104
f 24/26/105 33/20/106 3/21/107
f 35/34/108 34/36/109 44/35/110
f 34/36/111 43/37/112 44/35/113
f 36/38/114 35/34/115 45/39/116
f 35/34/117 44/35/118 45/39/119
f 46/40/120 37/41/121 45/39/122
f 37/41/123 36/38/124 45/39/125
f 34/36/126 41/42/127 43/37/128
f 41/42/129 48/43/130 43/37/131
f 49/44/132 40/46/133 47/45/134
f 41/42/135 40/46/136 48/43/137
f 40/46/138 49/44/139 48/43/140
f 46/40/141 50/48/142 58/47/143
f 44/35/144 43/37/145 52/49/146
f 43/37/147 1/18/148 52/49/149
f 2/19/150 45/39/151 52/49/152
f 45/39/153 44/35/154 52/49/155
f 46/40/156 45/39/157 2/19/158
f 60/50/159 3/21/160 53/51/161
f 43/37/162 48/43/163 1/18/164
f 48/43/165 4/23/166 1/18/167
f 49/44/168 47/45/169 57/52/170
f 4/23/171 48/43/172 55/53/173
f 48/43/174 49/44/175 55/53/176
f 51/54/177 50/48/178 2/19/179
f 50/48/180 46/40/181 2/19/182
f 47/45/183 40/46/184 39/57/185 56/56/186 42/55/187
f 49/44/188 57/52/189 54/58/190 55/53/191
f 59/59/192 37/41/193 58/47/194
f 38/60/195 37/41/196 59/59/197
f 3/21/198 51/54/199 2/19/200
f 51/54/201 3/21/202 60/50/203
f 37/41/204 46/40/205 58/47/206
