# This file uses centimeters as units for non-parametric coordinates.

mtllib Boarder_Left.mtl
g default
v 0.360153 0.300000 -14.775176
v -4.239785 0.300000 -11.904982
v -5.744531 0.300000 -11.152609
v -7.104589 0.300000 -10.805360
v -9.188084 0.300000 -9.821487
v -11.126891 0.300000 -9.908299
v -12.342263 0.300000 -10.515985
v -13.239324 0.300000 -8.721865
v -14.396820 0.300000 -7.361806
v -15.814754 0.300000 -6.175372
v -17.927187 0.300000 -5.654498
v -19.952806 0.300000 -6.464746
v -22.586111 0.300000 -6.869870
v -23.193798 0.300000 -6.696245
v -22.788673 0.300000 -4.583813
v -22.586111 0.300000 -3.773565
v -21.862677 0.300000 -3.715691
v -21.486490 0.300000 -3.397379
v -21.660114 0.300000 -2.239882
v -24.206608 0.300000 -1.525514
v -24.119795 0.300000 1.406234
v -21.602240 0.300000 2.332231
v -21.515427 0.300000 3.258229
v -21.833738 0.300000 3.692290
v -22.759737 0.300000 4.010602
v -23.049110 0.300000 6.209846
v -22.933361 0.300000 6.817532
v -21.023491 0.300000 6.817532
v -19.019297 0.300000 6.162385
v -17.059063 0.300000 8.293341
v -15.268711 0.300000 10.648746
v -13.544108 0.300000 12.057090
v -9.913404 0.300000 14.590056
v -6.898090 0.300000 16.364828
v 0.414719 0.300000 20.492340
v 0.414719 0.300000 29.822784
v -15.276031 0.300000 29.822784
v -23.282042 0.300000 23.748224
v -32.969990 0.300000 14.531220
v -37.141186 0.300000 4.170501
v -36.333858 0.300000 -6.728438
v -32.162659 0.300000 -13.792565
v -23.483875 0.300000 -21.394911
v -12.988600 0.300000 -25.364277
v 0.382697 0.300000 -25.364277
v -17.550123 0.300000 6.110273
v -18.236017 0.300000 5.904691
v -17.833130 0.300000 5.841236
v -4.306966 0.300000 18.110222
v -2.157169 0.300000 19.854204
v -1.714423 0.300000 -14.159758
v -3.219740 0.300000 -12.968431
vt 0.074171 0.725104
vt 0.161513 0.711355
vt 0.191334 0.709491
vt 0.215980 0.713248
vt 0.256870 0.711613
vt 0.287967 0.726481
vt 0.303623 0.744847
vt 0.330735 0.721735
vt 0.359094 0.707527
vt 0.390507 0.697964
vt 0.428658 0.704100
vt 0.456157 0.731398
vt 0.496402 0.756288
vt 0.507542 0.757664
vt 0.515570 0.720316
vt 0.517879 0.705663
vt 0.506452 0.699699
vt 0.502509 0.691885
vt 0.513377 0.674164
vt 0.561234 0.677161
vt 0.578884 0.631611
vt 0.544145 0.599009
vt 0.549148 0.583266
vt 0.557363 0.578377
vt 0.574711 0.579596
vt 0.594697 0.545646
vt 0.597020 0.534907
vt 0.565794 0.521659
vt 0.526094 0.516541
vt 0.511212 0.470031
vt 0.502380 0.417155
vt 0.481132 0.383019
vt 0.440329 0.316021
vt 0.405117 0.264794
vt 0.315509 0.157552
vt 0.382349 0.000000
vt 0.631396 0.105656
vt 0.720159 0.260508
vt 0.814624 0.478406
vt 0.810958 0.676737
vt 0.722159 0.849335
vt 0.604960 0.935901
vt 0.410329 1.000000
vt 0.211198 0.992100
vt 0.000000 0.902501
vt 0.509370 0.492139
vt 0.521452 0.515967
vt 0.513090 0.503767
vt 0.384536 0.237639
vt 0.339732 0.184018
vt 0.101806 0.725104
vt 0.145477 0.718230
vn 0.000000 1.000000 0.000000
vn 0.000000 1.000000 0.000000
vn 0.000000 1.000000 0.000000
vn 0.000000 1.000000 0.000000
vn 0.000000 1.000000 -0.000000
vn 0.000000 1.000000 0.000000
vn 0.000000 1.000000 0.000000
vn 0.000000 1.000000 0.000000
vn 0.000000 1.000000 0.000000
vn 0.000000 1.000000 0.000000
vn 0.000000 1.000000 0.000000
vn 0.000000 1.000000 -0.000000
vn 0.000000 1.000000 -0.000000
vn 0.000000 1.000000 0.000000
vn 0.000000 1.000000 0.000000
vn 0.000000 1.000000 0.000000
vn 0.000000 1.000000 -0.000000
vn 0.000000 1.000000 -0.000000
vn 0.000000 1.000000 0.000000
vn 0.000000 1.000000 0.000000
vn 0.000000 1.000000 0.000000
vn 0.000000 1.000000 -0.000000
vn 0.000000 1.000000 0.000000
vn 0.000000 1.000000 0.000000
vn 0.000000 1.000000 0.000000
vn 0.000000 1.000000 0.000000
vn 0.000000 1.000000 0.000000
vn 0.000000 1.000000 0.000000
vn 0.000000 1.000000 -0.000000
vn 0.000000 1.000000 0.000000
vn 0.000000 1.000000 0.000000
vn 0.000000 1.000000 -0.000000
vn 0.000000 1.000000 -0.000000
vn 0.000000 1.000000 0.000000
vn 0.000000 1.000000 -0.000000
vn 0.000000 1.000000 -0.000000
vn 0.000000 1.000000 0.000000
vn 0.000000 1.000000 -0.000000
vn 0.000000 1.000000 -0.000000
vn 0.000000 1.000000 -0.000000
vn 0.000000 1.000000 -0.000000
vn 0.000000 1.000000 0.000000
vn 0.000000 1.000000 -0.000000
vn 0.000000 1.000000 0.000000
vn 0.000000 1.000000 0.000000
vn 0.000000 1.000000 0.000000
vn 0.000000 1.000000 0.000000
vn 0.000000 1.000000 0.000000
vn 0.000000 1.000000 -0.000000
vn 0.000000 1.000000 -0.000000
vn 0.000000 1.000000 0.000000
vn 0.000000 1.000000 0.000000
s 1
g polySurface7096
usemtl lambert17SG
f 36/36/1 35/35/2 37/37/3
f 35/35/2 50/50/4 37/37/3
f 50/50/4 49/49/5 37/37/3
f 49/49/5 34/34/6 37/37/3
f 37/37/3 34/34/6 38/38/7
f 34/34/6 33/33/8 38/38/7
f 33/33/8 32/32/9 38/38/7
f 38/38/7 32/32/9 39/39/10
f 32/32/9 31/31/11 39/39/10
f 31/31/11 30/30/12 39/39/10
f 45/45/13 44/44/14 1/1/15
f 1/1/15 44/44/14 51/51/16
f 51/51/16 44/44/14 52/52/17
f 39/39/10 30/30/12 40/40/18
f 52/52/17 44/44/14 2/2/19
f 2/2/19 44/44/14 3/3/20
f 3/3/20 44/44/14 4/4/21
f 44/44/14 43/43/22 4/4/21
f 4/4/21 43/43/22 5/5/23
f 5/5/23 43/43/22 6/6/24
f 6/6/24 43/43/22 7/7/25
f 43/43/22 42/42/26 7/7/25
f 7/7/25 42/42/26 8/8/27
f 8/8/27 42/42/26 9/9/28
f 9/9/28 42/42/26 10/10/29
f 10/10/29 42/42/26 11/11/30
f 11/11/30 42/42/26 12/12/31
f 12/12/31 42/42/26 13/13/32
f 13/13/32 42/42/26 14/14/33
f 42/42/26 41/41/34 14/14/33
f 41/41/34 40/40/18 14/14/33
f 14/14/33 40/40/18 15/15/35
f 15/15/35 40/40/18 16/16/36
f 19/19/37 18/18/38 20/20/39
f 18/18/38 17/17/40 20/20/39
f 17/17/40 16/16/36 20/20/39
f 16/16/36 40/40/18 20/20/39
f 20/20/39 40/40/18 21/21/41
f 22/22/42 21/21/41 23/23/43
f 23/23/43 21/21/41 24/24/44
f 24/24/44 21/21/41 25/25/45
f 21/21/41 40/40/18 25/25/45
f 25/25/45 40/40/18 26/26/46
f 26/26/46 40/40/18 27/27/47
f 40/40/18 30/30/12 27/27/47
f 27/27/47 30/30/12 28/28/48
f 28/28/48 30/30/12 29/29/49
f 29/29/49 30/30/12 47/47/50
f 47/47/50 30/30/12 48/48/51
f 48/48/51 30/30/12 46/46/52
