# This file uses centimeters as units for non-parametric coordinates.

mtllib Forest_5.mtl
g default
v -7.625923 0.208879 3.337307
v -8.215124 0.208879 3.042706
v -8.341382 0.208879 2.348290
v -8.109910 0.208879 1.717003
v -7.520709 0.208879 1.233017
v -6.657950 0.208879 1.127802
v -5.774148 0.208879 1.359274
v -4.806175 0.208879 1.569703
v -3.922373 0.208879 2.179947
v -3.480472 0.208879 2.832277
v -3.122743 0.208879 3.758165
v -3.270043 0.208879 4.473623
v -3.880287 0.208879 4.557795
v -4.238017 0.208879 3.779208
v -5.774148 0.208879 3.610864
v -6.805250 0.208879 3.442521
vt 0.791878 0.000000
vt 0.651438 0.049069
vt 0.472081 0.104907
vt 0.211506 0.201354
vt 0.091371 0.104907
vt 0.000000 0.167513
vt 0.033841 0.294416
vt 0.165821 0.414552
vt 0.289340 0.483926
vt 0.480542 0.510998
vt 0.653130 0.467005
vt 0.813875 0.433164
vt 0.944162 0.346870
vt 1.000000 0.221658
vt 0.986464 0.101523
vt 0.910321 0.000000
vn 0.000000 1.000000 0.000000
vn 0.000000 1.000000 0.000000
vn 0.000000 1.000000 0.000000
vn 0.000000 1.000000 0.000000
vn 0.000000 1.000000 0.000000
vn 0.000000 1.000000 0.000000
vn 0.000000 1.000000 0.000000
vn 0.000000 1.000000 0.000000
vn 0.000000 1.000000 0.000000
vn 0.000000 1.000000 0.000000
vn 0.000000 1.000000 0.000000
vn 0.000000 1.000000 0.000000
vn 0.000000 1.000000 0.000000
vn 0.000000 1.000000 -0.000000
vn 0.000000 1.000000 0.000000
vn 0.000000 1.000000 0.000000
s 1
g polySurface7124 polySurface7114
usemtl lambert16SG
f 13/5/1 12/6/2 14/4/3
f 12/6/2 11/7/4 14/4/3
f 11/7/4 10/8/5 14/4/3
f 10/8/5 9/9/6 14/4/3
f 14/4/3 9/9/6 15/3/7
f 9/9/6 8/10/8 15/3/7
f 8/10/8 7/11/9 15/3/7
f 15/3/7 7/11/9 16/2/10
f 7/11/9 6/12/11 16/2/10
f 6/12/11 5/13/12 16/2/10
f 16/2/10 5/13/12 1/1/13
f 5/13/12 4/14/14 1/1/13
f 4/14/14 3/15/15 1/1/13
f 1/1/13 3/15/15 2/16/16
