# This file uses centimeters as units for non-parametric coordinates.

mtllib Forest_1.mtl
g default
v -4.272046 0.208879 -12.632629
v -3.815312 0.208879 -11.924691
v -3.267231 0.208879 -11.171080
v -3.221558 0.208879 -10.737183
v -4.180699 0.208879 -9.823714
v -5.596575 0.208879 -9.161450
v -7.035287 0.208879 -8.864573
v -8.451162 0.208879 -8.887409
v -9.318957 0.208879 -9.481164
v -9.730019 0.208879 -10.257612
v -9.867039 0.208879 -10.942713
v -8.154285 0.208879 -11.856181
v -5.528065 0.208879 -12.495609
vt 0.268798 0.008664
vt 0.174523 0.196906
vt 0.026818 0.622383
vt 0.000000 0.944714
vt 0.108303 0.987416
vt 0.254152 1.000000
vt 0.415678 0.932130
vt 0.546777 0.735946
vt 0.635173 0.507684
vt 0.670345 0.249613
vt 0.629087 0.032800
vt 0.564208 0.000000
vt 0.409180 0.008664
vn 0.000000 1.000000 0.000000
vn 0.000000 1.000000 0.000000
vn 0.000000 1.000000 -0.000000
vn 0.000000 1.000000 0.000000
vn 0.000000 1.000000 -0.000000
vn 0.000000 1.000000 -0.000000
vn 0.000000 1.000000 0.000000
vn 0.000000 1.000000 0.000000
vn 0.000000 1.000000 0.000000
vn 0.000000 1.000000 0.000000
vn 0.000000 1.000000 -0.000000
vn 0.000000 1.000000 -0.000000
vn 0.000000 1.000000 -0.000000
s 1
g polySurface7126 polySurface7114
usemtl lambert16SG
f 11/4/1 10/5/2 12/3/3
f 10/5/2 9/6/4 12/3/3
f 9/6/4 8/7/5 12/3/3
f 8/7/5 7/8/6 12/3/3
f 12/3/3 7/8/6 13/2/7
f 7/8/6 6/9/8 13/2/7
f 6/9/8 5/10/9 13/2/7
f 13/2/7 5/10/9 1/1/10
f 1/1/10 5/10/9 2/13/11
f 5/10/9 4/11/12 2/13/11
f 4/11/12 3/12/13 2/13/11
