# This file uses centimeters as units for non-parametric coordinates.

mtllib Forest_9.mtl
g default
v -9.603217 0.208879 14.952249
v -8.699111 0.208879 14.363787
v -7.752181 0.208879 14.216486
v -6.615864 0.208879 14.595258
v -5.774148 0.208879 15.226545
v -4.932432 0.208879 15.394888
v -3.859244 0.208879 15.899918
v -3.480472 0.208879 16.341820
v -3.585686 0.208879 16.741634
v -3.985502 0.208879 17.267706
v -4.682401 0.208879 18.038877
v -6.721078 0.208879 16.552248
v -8.446596 0.208879 15.605317
vt 0.000000 0.000000
vt 0.085099 0.246412
vt 0.301094 0.583732
vt 0.634997 1.000000
vt 0.720097 0.978127
vt 0.842790 0.923103
vt 0.900548 0.861927
vt 0.875941 0.746069
vt 0.733425 0.551264
vt 0.599454 0.439166
vt 0.510595 0.244361
vt 0.344498 0.065960
vt 0.160971 0.000000
vn 0.000000 1.000000 0.000000
vn 0.000000 1.000000 0.000000
vn 0.000000 1.000000 0.000000
vn 0.000000 1.000000 0.000000
vn 0.000000 1.000000 0.000000
vn 0.000000 1.000000 0.000000
vn 0.000000 1.000000 0.000000
vn 0.000000 1.000000 0.000000
vn 0.000000 1.000000 0.000000
vn 0.000000 1.000000 0.000000
vn 0.000000 1.000000 0.000000
vn 0.000000 1.000000 0.000000
vn 0.000000 1.000000 0.000000
s 1
g polySurface7122 polySurface7114
usemtl lambert16SG
f 1/1/1 13/2/2 2/13/3
f 2/13/3 13/2/2 3/12/4
f 13/2/2 12/3/5 3/12/4
f 3/12/4 12/3/5 4/11/6
f 4/11/6 12/3/5 5/10/7
f 12/3/5 11/4/8 5/10/7
f 5/10/7 11/4/8 6/9/9
f 11/4/8 10/5/10 6/9/9
f 6/9/9 10/5/10 7/8/11
f 10/5/10 9/6/12 7/8/11
f 9/6/12 8/7/13 7/8/11
