# This file uses centimeters as units for non-parametric coordinates.

mtllib Forest_10.mtl
g default
v 9.393527 0.208879 14.742558
v 8.699111 0.208879 14.363787
v 7.752181 0.208879 14.216486
v 6.615864 0.208879 14.595258
v 5.774148 0.208879 15.226545
v 4.932432 0.208879 15.394888
v 3.859244 0.208879 15.899918
v 3.480472 0.208879 16.341820
v 3.585686 0.208879 16.741634
v 3.985502 0.208879 17.267706
v 4.301145 0.208879 17.562307
v 6.721078 0.208879 16.552248
v 8.446596 0.208879 15.605317
vt 0.000000 0.000000
vt 0.160971 0.000000
vt 0.344498 0.065960
vt 0.510595 0.244361
vt 0.599454 0.439166
vt 0.733425 0.551264
vt 0.875941 0.746069
vt 0.900548 0.861927
vt 0.842790 0.923103
vt 0.720097 0.978127
vt 0.634997 1.000000
vt 0.301094 0.583732
vt 0.085099 0.246412
vn 0.000000 1.000000 -0.000000
vn 0.000000 1.000000 -0.000000
vn 0.000000 1.000000 -0.000000
vn 0.000000 1.000000 -0.000000
vn 0.000000 1.000000 -0.000000
vn 0.000000 1.000000 -0.000000
vn 0.000000 1.000000 -0.000000
vn 0.000000 1.000000 0.000000
vn 0.000000 1.000000 0.000000
vn 0.000000 1.000000 0.000000
vn 0.000000 1.000000 0.000000
vn 0.000000 1.000000 0.000000
vn 0.000000 1.000000 0.000000
s 1
g polySurface7117 polySurface7114
usemtl lambert16SG
f 1/1/1 2/2/2 13/13/3
f 2/2/2 3/3/4 13/13/3
f 13/13/3 3/3/4 12/12/5
f 3/3/4 4/4/6 12/12/5
f 4/4/6 5/5/7 12/12/5
f 12/12/5 5/5/7 11/11/8
f 5/5/7 6/6/9 11/11/8
f 6/6/9 7/7/10 11/11/8
f 11/11/8 7/7/10 10/10/11
f 10/10/11 7/7/10 9/9/12
f 7/7/10 8/8/13 9/9/12
