# This file uses centimeters as units for non-parametric coordinates.

mtllib River_5.mtl
g default
v -1.445517 0.107408 11.799411
v -1.414524 0.107408 13.318043
v -0.035359 0.107408 13.318043
v 1.312814 0.107408 13.287050
v 1.297318 0.107408 11.737426
v -0.081848 0.107408 11.783915
vt 0.002190 0.000000
vt 0.555837 0.000000
vt 0.566094 0.502593
vt 0.564827 0.994122
vt 0.000000 1.000000
vt 0.006684 0.497061
vn 0.000000 1.000000 0.000000
vn 0.000000 1.000000 0.000000
vn 0.000000 1.000000 0.000000
vn 0.000000 1.000000 0.000000
vn 0.000000 1.000000 0.000000
vn 0.000000 1.000000 0.000000
s 1
g polySurface7109
usemtl lambert19SG
f 1/1/1 2/2/2 6/6/3
f 2/2/2 3/3/4 6/6/3
f 5/5/5 6/6/3 4/4/6
f 3/3/4 4/4/6 6/6/3
