# This file uses centimeters as units for non-parametric coordinates.

mtllib Wall_Right.mtl
g default
v 8.874502 0.414120 9.245623
v 10.505680 0.414120 8.482653
v 11.821146 0.414120 7.325042
v 12.531498 0.414120 6.141123
v 12.899828 0.414120 4.930894
v 12.531498 0.414120 4.194233
v 11.242341 0.414120 3.483881
v 8.953430 0.414120 3.247097
v 7.164396 0.414120 3.115551
v 4.612392 0.414120 3.483881
v 3.428473 0.414120 3.904830
v 3.060142 0.414120 4.615182
v 3.112761 0.414120 8.824674
v 3.744184 0.414120 8.850983
v 3.717875 0.414120 5.009822
v 5.243816 0.414120 5.009822
v 6.585591 0.414120 5.036131
v 8.295697 0.414120 4.799347
v 9.690091 0.414120 5.009822
v 10.795083 0.414120 5.430771
v 11.268650 0.414120 5.904339
v 10.058421 0.414120 7.009330
v 8.953430 0.414120 7.772301
v 8.348315 0.414120 8.245869
v 8.322006 0.414120 8.903602
vt 0.479383 0.000000
vt 0.650643 0.000000
vt 0.810608 0.046717
vt 0.919506 0.120083
vt 1.000000 0.209497
vt 0.997953 0.287798
vt 0.915521 0.400936
vt 0.727884 0.513562
vt 0.579069 0.596981
vt 0.344385 0.668080
vt 0.225435 0.679522
vt 0.165083 0.633170
vt 0.000000 0.268424
vt 0.053334 0.240715
vt 0.205841 0.572671
vt 0.337293 0.511186
vt 0.451820 0.454854
vt 0.608678 0.406346
vt 0.720317 0.332030
vt 0.798545 0.251243
vt 0.820259 0.191366
vt 0.671480 0.144941
vt 0.545548 0.123739
vt 0.474338 0.107326
vt 0.445570 0.051725
vn 0.000000 1.000000 0.000000
vn 0.000000 1.000000 0.000000
vn 0.000000 1.000000 0.000000
vn 0.000000 1.000000 -0.000000
vn 0.000000 1.000000 -0.000000
vn 0.000000 1.000000 0.000000
vn 0.000000 1.000000 0.000000
vn 0.000000 1.000000 0.000000
vn 0.000000 1.000000 0.000000
vn 0.000000 1.000000 0.000000
vn 0.000000 1.000000 0.000000
vn 0.000000 1.000000 0.000000
vn 0.000000 1.000000 0.000000
vn 0.000000 1.000000 0.000000
vn 0.000000 1.000000 0.000000
vn 0.000000 1.000000 0.000000
vn 0.000000 1.000000 0.000000
vn 0.000000 1.000000 -0.000000
vn 0.000000 1.000000 0.000000
vn 0.000000 1.000000 0.000000
vn 0.000000 1.000000 0.000000
vn 0.000000 1.000000 0.000000
vn 0.000000 1.000000 -0.000000
vn 0.000000 1.000000 -0.000000
vn 0.000000 1.000000 0.000000
s 1
g polySurface7105
usemtl lambert18SG
f 14/14/1 15/15/2 13/13/3
f 13/13/3 15/15/2 12/12/4
f 12/12/4 15/15/2 11/11/5
f 11/11/5 15/15/2 10/10/6
f 15/15/2 16/16/7 10/10/6
f 10/10/6 16/16/7 9/9/8
f 16/16/7 17/17/9 9/9/8
f 17/17/9 18/18/10 9/9/8
f 9/9/8 18/18/10 8/8/11
f 18/18/10 19/19/12 8/8/11
f 8/8/11 19/19/12 7/7/13
f 19/19/12 20/20/14 7/7/13
f 7/7/13 20/20/14 6/6/15
f 20/20/14 21/21/16 6/6/15
f 6/6/15 21/21/16 5/5/17
f 5/5/17 21/21/16 4/4/18
f 4/4/18 21/21/16 3/3/19
f 21/21/16 22/22/20 3/3/19
f 3/3/19 22/22/20 2/2/21
f 22/22/20 23/23/22 2/2/21
f 2/2/21 23/23/22 1/1/23
f 23/23/22 24/24/24 1/1/23
f 1/1/23 24/24/24 25/25/25
